<svg width="261" height="71" viewBox="0 0 261 71" fill="none" xmlns="http://www.w3.org/2000/svg">
<path d="M98.75 59H95V22.9H98.7V24.7C101.233 23.1667 103.733 22.4 106.2 22.4C109.367 22.4 111.667 23.4167 113.1 25.45C114.533 27.45 115.25 30.7667 115.25 35.4C115.25 37.7 115.05 39.6833 114.65 41.35C114.25 42.9833 113.6 44.3333 112.7 45.4C111.833 46.4333 110.717 47.2 109.35 47.7C107.983 48.1667 106.317 48.4 104.35 48.4C103.317 48.4 102.333 48.35 101.4 48.25C100.5 48.15 99.6167 48.0167 98.75 47.85V59ZM105.65 25.75C104.65 25.75 103.567 25.9167 102.4 26.25C101.267 26.5833 100.367 26.9167 99.7 27.25L98.75 27.75V44.6C99.9167 44.7667 100.95 44.9 101.85 45C102.75 45.1 103.517 45.15 104.15 45.15C106.85 45.15 108.733 44.3833 109.8 42.85C110.9 41.3167 111.45 38.8167 111.45 35.35C111.45 31.8833 110.95 29.4167 109.95 27.95C108.983 26.4833 107.55 25.75 105.65 25.75Z" fill="white"/>
<path d="M120.267 35.35C120.267 33.05 120.451 31.0833 120.817 29.45C121.217 27.8167 121.851 26.4833 122.717 25.45C123.584 24.3833 124.701 23.6167 126.067 23.15C127.434 22.65 129.084 22.4 131.017 22.4C132.951 22.4 134.584 22.65 135.917 23.15C137.284 23.6167 138.384 24.3833 139.217 25.45C140.084 26.4833 140.701 27.8167 141.067 29.45C141.467 31.0833 141.667 33.05 141.667 35.35C141.667 37.65 141.484 39.6167 141.117 41.25C140.784 42.8833 140.201 44.2333 139.367 45.3C138.534 46.3667 137.434 47.15 136.067 47.65C134.701 48.15 133.001 48.4 130.967 48.4C128.934 48.4 127.234 48.15 125.867 47.65C124.501 47.15 123.401 46.3667 122.567 45.3C121.734 44.2333 121.134 42.8833 120.767 41.25C120.434 39.6167 120.267 37.65 120.267 35.35ZM124.117 35.25C124.117 37.0833 124.201 38.6333 124.367 39.9C124.567 41.1333 124.917 42.15 125.417 42.95C125.951 43.7167 126.667 44.2833 127.567 44.65C128.467 44.9833 129.617 45.15 131.017 45.15C132.417 45.15 133.551 44.9833 134.417 44.65C135.317 44.3167 136.017 43.7667 136.517 43C137.017 42.2 137.351 41.1833 137.517 39.95C137.717 38.6833 137.817 37.1333 137.817 35.3C137.817 33.4667 137.701 31.9333 137.467 30.7C137.267 29.4667 136.901 28.4833 136.367 27.75C135.834 26.9833 135.134 26.45 134.267 26.15C133.401 25.8167 132.317 25.65 131.017 25.65C129.717 25.65 128.617 25.8167 127.717 26.15C126.851 26.45 126.151 26.9833 125.617 27.75C125.084 28.4833 124.701 29.4667 124.467 30.7C124.234 31.9 124.117 33.4167 124.117 35.25Z" fill="white"/>
<path d="M152.483 47.9L145.433 22.9H149.433L155.283 44.65H157.133L163.183 22.9H167.033L159.983 47.9H152.483Z" fill="white"/>
<path d="M188.855 44.8L190.305 44.65L190.405 47.6C188.505 47.8667 186.739 48.0667 185.105 48.2C183.505 48.3333 182.022 48.4 180.655 48.4C177.055 48.4 174.505 47.3667 173.005 45.3C171.505 43.2 170.755 39.95 170.755 35.55C170.755 26.7833 174.239 22.4 181.205 22.4C184.605 22.4 187.122 23.35 188.755 25.25C190.422 27.1167 191.255 30.0667 191.255 34.1L191.055 36.95H174.555C174.555 39.75 175.055 41.8167 176.055 43.15C177.055 44.45 178.805 45.1 181.305 45.1C183.805 45.1 186.322 45 188.855 44.8ZM174.505 33.95H187.505C187.505 30.8833 187.005 28.7167 186.005 27.45C185.039 26.1833 183.455 25.55 181.255 25.55C179.022 25.55 177.339 26.2167 176.205 27.55C175.105 28.8833 174.539 31.0167 174.505 33.95Z" fill="white"/>
<path d="M200.85 47.9H197.1V22.9H200.8V26.3C203.666 24.3333 206.716 23.0167 209.95 22.35V26.15C209.25 26.2833 208.516 26.4667 207.75 26.7C207.016 26.9333 206.283 27.1833 205.55 27.45C204.85 27.6833 204.2 27.9333 203.6 28.2C203 28.4667 202.5 28.7 202.1 28.9L200.85 29.55V47.9Z" fill="white"/>
<path d="M213.285 35.35C213.285 33.05 213.468 31.0833 213.835 29.45C214.235 27.8167 214.868 26.4833 215.735 25.45C216.601 24.3833 217.718 23.6167 219.085 23.15C220.451 22.65 222.101 22.4 224.035 22.4C225.968 22.4 227.601 22.65 228.935 23.15C230.301 23.6167 231.401 24.3833 232.235 25.45C233.101 26.4833 233.718 27.8167 234.085 29.45C234.485 31.0833 234.685 33.05 234.685 35.35C234.685 37.65 234.501 39.6167 234.135 41.25C233.801 42.8833 233.218 44.2333 232.385 45.3C231.551 46.3667 230.451 47.15 229.085 47.65C227.718 48.15 226.018 48.4 223.985 48.4C221.951 48.4 220.251 48.15 218.885 47.65C217.518 47.15 216.418 46.3667 215.585 45.3C214.751 44.2333 214.151 42.8833 213.785 41.25C213.451 39.6167 213.285 37.65 213.285 35.35ZM217.135 35.25C217.135 37.0833 217.218 38.6333 217.385 39.9C217.585 41.1333 217.935 42.15 218.435 42.95C218.968 43.7167 219.685 44.2833 220.585 44.65C221.485 44.9833 222.635 45.15 224.035 45.15C225.435 45.15 226.568 44.9833 227.435 44.65C228.335 44.3167 229.035 43.7667 229.535 43C230.035 42.2 230.368 41.1833 230.535 39.95C230.735 38.6833 230.835 37.1333 230.835 35.3C230.835 33.4667 230.718 31.9333 230.485 30.7C230.285 29.4667 229.918 28.4833 229.385 27.75C228.851 26.9833 228.151 26.45 227.285 26.15C226.418 25.8167 225.335 25.65 224.035 25.65C222.735 25.65 221.635 25.8167 220.735 26.15C219.868 26.45 219.168 26.9833 218.635 27.75C218.101 28.4833 217.718 29.4667 217.485 30.7C217.251 31.9 217.135 33.4167 217.135 35.25Z" fill="white"/>
<path d="M244.551 27.25V47.9H240.801V12H244.551V24.3C247.251 23.0333 249.817 22.4 252.251 22.4C253.917 22.4 255.284 22.6167 256.351 23.05C257.451 23.45 258.317 24.1333 258.951 25.1C259.617 26.0667 260.067 27.3333 260.301 28.9C260.567 30.4667 260.701 32.4 260.701 34.7V47.9H256.951V34.8C256.951 33.0667 256.867 31.6167 256.701 30.45C256.567 29.2833 256.301 28.35 255.901 27.65C255.534 26.95 255.001 26.4667 254.301 26.2C253.601 25.9 252.701 25.75 251.601 25.75C249.534 25.75 247.501 26.1333 245.501 26.9L244.551 27.25Z" fill="white"/>
<path fill-rule="evenodd" clip-rule="evenodd" d="M35.0488 13.1481C36.017 13.1481 36.8019 13.933 36.8019 14.9012V21.0521L43.976 16.7653C44.8071 16.2687 45.8834 16.5398 46.3801 17.371C46.8767 18.2021 46.6055 19.2785 45.7744 19.7751L36.8019 25.1365V34.0172L48.1821 27.164C49.0115 26.6646 50.0888 26.932 50.5883 27.7614C51.0877 28.5909 50.8203 29.6682 49.9909 30.1676L38.8406 36.8823L49.984 43.5234C50.8157 44.0191 51.0881 45.0951 50.5924 45.9268C50.0967 46.7585 49.0207 47.0309 48.189 46.5353L36.8019 39.7489V56.0988C36.8019 57.067 36.017 57.8519 35.0488 57.8519C34.0806 57.8519 33.2958 57.067 33.2958 56.0988V40.2214L22.818 46.5311C21.9886 47.0306 20.9113 46.7631 20.4118 45.9337C19.9124 45.1043 20.1798 44.027 21.0092 43.5275L32.0182 36.8979L21.2167 30.4605C20.385 29.9649 20.1126 28.8888 20.6082 28.0571C21.1039 27.2254 22.18 26.953 23.0117 27.4487L33.2958 33.5777V14.9012C33.2958 13.933 34.0806 13.1481 35.0488 13.1481Z" fill="white"/>
<path fill-rule="evenodd" clip-rule="evenodd" d="M35.5 67.4938C53.1697 67.4938 67.4938 53.1697 67.4938 35.5C67.4938 17.8303 53.1697 3.50617 35.5 3.50617C17.8303 3.50617 3.50617 17.8303 3.50617 35.5C3.50617 53.1697 17.8303 67.4938 35.5 67.4938ZM35.5 71C55.1061 71 71 55.1061 71 35.5C71 15.8939 55.1061 0 35.5 0C15.8939 0 0 15.8939 0 35.5C0 55.1061 15.8939 71 35.5 71Z" fill="white"/>
</svg>
