<svg width="166" height="47" viewBox="0 0 166 47" fill="none" xmlns="http://www.w3.org/2000/svg">
<path d="M3.75 47H0V10.9H3.7V12.7C6.23333 11.1667 8.73333 10.4 11.2 10.4C14.3667 10.4 16.6667 11.4167 18.1 13.45C19.5333 15.45 20.25 18.7667 20.25 23.4C20.25 25.7 20.05 27.6833 19.65 29.35C19.25 30.9833 18.6 32.3333 17.7 33.4C16.8333 34.4333 15.7167 35.2 14.35 35.7C12.9833 36.1667 11.3167 36.4 9.35 36.4C8.31667 36.4 7.33333 36.35 6.4 36.25C5.5 36.15 4.61667 36.0167 3.75 35.85V47ZM10.65 13.75C9.65 13.75 8.56667 13.9167 7.4 14.25C6.26667 14.5833 5.36667 14.9167 4.7 15.25L3.75 15.75V32.6C4.91667 32.7667 5.95 32.9 6.85 33C7.75 33.1 8.51667 33.15 9.15 33.15C11.85 33.15 13.7333 32.3833 14.8 30.85C15.9 29.3167 16.45 26.8167 16.45 23.35C16.45 19.8833 15.95 17.4167 14.95 15.95C13.9833 14.4833 12.55 13.75 10.65 13.75Z" fill="white"/>
<path d="M25.2672 23.35C25.2672 21.05 25.4505 19.0833 25.8172 17.45C26.2172 15.8167 26.8505 14.4833 27.7172 13.45C28.5839 12.3833 29.7005 11.6167 31.0672 11.15C32.4339 10.65 34.0839 10.4 36.0172 10.4C37.9505 10.4 39.5839 10.65 40.9172 11.15C42.2839 11.6167 43.3839 12.3833 44.2172 13.45C45.0839 14.4833 45.7005 15.8167 46.0672 17.45C46.4672 19.0833 46.6672 21.05 46.6672 23.35C46.6672 25.65 46.4839 27.6167 46.1172 29.25C45.7839 30.8833 45.2005 32.2333 44.3672 33.3C43.5339 34.3667 42.4339 35.15 41.0672 35.65C39.7005 36.15 38.0005 36.4 35.9672 36.4C33.9339 36.4 32.2339 36.15 30.8672 35.65C29.5005 35.15 28.4005 34.3667 27.5672 33.3C26.7339 32.2333 26.1339 30.8833 25.7672 29.25C25.4339 27.6167 25.2672 25.65 25.2672 23.35ZM29.1172 23.25C29.1172 25.0833 29.2005 26.6333 29.3672 27.9C29.5672 29.1333 29.9172 30.15 30.4172 30.95C30.9505 31.7167 31.6672 32.2833 32.5672 32.65C33.4672 32.9833 34.6172 33.15 36.0172 33.15C37.4172 33.15 38.5505 32.9833 39.4172 32.65C40.3172 32.3167 41.0172 31.7667 41.5172 31C42.0172 30.2 42.3505 29.1833 42.5172 27.95C42.7172 26.6833 42.8172 25.1333 42.8172 23.3C42.8172 21.4667 42.7005 19.9333 42.4672 18.7C42.2672 17.4667 41.9005 16.4833 41.3672 15.75C40.8339 14.9833 40.1339 14.45 39.2672 14.15C38.4005 13.8167 37.3172 13.65 36.0172 13.65C34.7172 13.65 33.6172 13.8167 32.7172 14.15C31.8505 14.45 31.1505 14.9833 30.6172 15.75C30.0839 16.4833 29.7005 17.4667 29.4672 18.7C29.2339 19.9 29.1172 21.4167 29.1172 23.25Z" fill="white"/>
<path d="M57.4832 35.9L50.4332 10.9H54.4332L60.2832 32.65H62.1332L68.1832 10.9H72.0332L64.9832 35.9H57.4832Z" fill="white"/>
<path d="M93.8555 32.8L95.3055 32.65L95.4055 35.6C93.5055 35.8667 91.7388 36.0667 90.1055 36.2C88.5055 36.3333 87.0221 36.4 85.6555 36.4C82.0555 36.4 79.5055 35.3667 78.0055 33.3C76.5055 31.2 75.7555 27.95 75.7555 23.55C75.7555 14.7833 79.2388 10.4 86.2055 10.4C89.6055 10.4 92.1221 11.35 93.7555 13.25C95.4221 15.1167 96.2555 18.0667 96.2555 22.1L96.0555 24.95H79.5555C79.5555 27.75 80.0555 29.8167 81.0555 31.15C82.0555 32.45 83.8055 33.1 86.3055 33.1C88.8055 33.1 91.3221 33 93.8555 32.8ZM79.5055 21.95H92.5055C92.5055 18.8833 92.0055 16.7167 91.0055 15.45C90.0388 14.1833 88.4555 13.55 86.2555 13.55C84.0221 13.55 82.3388 14.2167 81.2055 15.55C80.1055 16.8833 79.5388 19.0167 79.5055 21.95Z" fill="white"/>
<path d="M105.85 35.9H102.1V10.9H105.8V14.3C108.666 12.3333 111.716 11.0167 114.95 10.35V14.15C114.25 14.2833 113.516 14.4667 112.75 14.7C112.016 14.9333 111.283 15.1833 110.55 15.45C109.85 15.6833 109.2 15.9333 108.6 16.2C108 16.4667 107.5 16.7 107.1 16.9L105.85 17.55V35.9Z" fill="white"/>
<path d="M118.285 23.35C118.285 21.05 118.468 19.0833 118.835 17.45C119.235 15.8167 119.868 14.4833 120.735 13.45C121.601 12.3833 122.718 11.6167 124.085 11.15C125.451 10.65 127.101 10.4 129.035 10.4C130.968 10.4 132.601 10.65 133.935 11.15C135.301 11.6167 136.401 12.3833 137.235 13.45C138.101 14.4833 138.718 15.8167 139.085 17.45C139.485 19.0833 139.685 21.05 139.685 23.35C139.685 25.65 139.501 27.6167 139.135 29.25C138.801 30.8833 138.218 32.2333 137.385 33.3C136.551 34.3667 135.451 35.15 134.085 35.65C132.718 36.15 131.018 36.4 128.985 36.4C126.951 36.4 125.251 36.15 123.885 35.65C122.518 35.15 121.418 34.3667 120.585 33.3C119.751 32.2333 119.151 30.8833 118.785 29.25C118.451 27.6167 118.285 25.65 118.285 23.35ZM122.135 23.25C122.135 25.0833 122.218 26.6333 122.385 27.9C122.585 29.1333 122.935 30.15 123.435 30.95C123.968 31.7167 124.685 32.2833 125.585 32.65C126.485 32.9833 127.635 33.15 129.035 33.15C130.435 33.15 131.568 32.9833 132.435 32.65C133.335 32.3167 134.035 31.7667 134.535 31C135.035 30.2 135.368 29.1833 135.535 27.95C135.735 26.6833 135.835 25.1333 135.835 23.3C135.835 21.4667 135.718 19.9333 135.485 18.7C135.285 17.4667 134.918 16.4833 134.385 15.75C133.851 14.9833 133.151 14.45 132.285 14.15C131.418 13.8167 130.335 13.65 129.035 13.65C127.735 13.65 126.635 13.8167 125.735 14.15C124.868 14.45 124.168 14.9833 123.635 15.75C123.101 16.4833 122.718 17.4667 122.485 18.7C122.251 19.9 122.135 21.4167 122.135 23.25Z" fill="white"/>
<path d="M149.551 15.25V35.9H145.801V0H149.551V12.3C152.251 11.0333 154.817 10.4 157.251 10.4C158.917 10.4 160.284 10.6167 161.351 11.05C162.451 11.45 163.317 12.1333 163.951 13.1C164.617 14.0667 165.067 15.3333 165.301 16.9C165.567 18.4667 165.701 20.4 165.701 22.7V35.9H161.951V22.8C161.951 21.0667 161.867 19.6167 161.701 18.45C161.567 17.2833 161.301 16.35 160.901 15.65C160.534 14.95 160.001 14.4667 159.301 14.2C158.601 13.9 157.701 13.75 156.601 13.75C154.534 13.75 152.501 14.1333 150.501 14.9L149.551 15.25Z" fill="white"/>
</svg>
