<svg width="400" height="80" viewBox="0 0 400 80" fill="none" xmlns="http://www.w3.org/2000/svg">
<path d="M22.1471 4.77922C31.7823 4.77922 38.7835 6.78788 43.1505 10.8052C47.5869 14.8225 49.805 20.3636 49.805 27.4286C49.805 30.6147 49.3198 33.6623 48.3494 36.5714C47.3789 39.4113 45.7499 41.974 43.4624 44.2597C41.1749 46.5455 38.1596 48.3463 34.4164 49.6623C30.7426 50.9784 26.1676 51.6364 20.6914 51.6364H13.3091V78.961H0V4.77922H22.1471ZM21.3153 15.7922H13.3091V40.6234H19.3397C22.9443 40.6234 25.9943 40.2078 28.4897 39.3766C31.0545 38.4762 32.9954 37.0909 34.3125 35.2208C35.6295 33.3507 36.288 30.9264 36.288 27.9481C36.288 23.8615 35.0749 20.8139 32.6488 18.8052C30.2227 16.7965 26.4448 15.7922 21.3153 15.7922Z" fill="white"/>
<path d="M113.454 50.7013C113.454 55.4113 112.83 59.5671 111.582 63.1688C110.334 66.7706 108.532 69.8528 106.175 72.4156C103.888 74.9091 101.046 76.8139 97.6491 78.1299C94.3219 79.3766 90.6133 80 86.5236 80C82.6418 80 79.0719 79.3766 75.8139 78.1299C72.556 76.8139 69.714 74.9091 67.2878 72.4156C64.931 69.8528 63.0941 66.7706 61.777 63.1688C60.46 59.5671 59.8015 55.4113 59.8015 50.7013C59.8015 44.4675 60.8759 39.2035 63.0248 34.9091C65.1736 30.5455 68.2583 27.2554 72.2787 25.039C76.3685 22.7532 81.1861 21.6104 86.7315 21.6104C91.9997 21.6104 96.6094 22.7532 100.56 25.039C104.581 27.2554 107.735 30.5455 110.022 34.9091C112.31 39.2035 113.454 44.4675 113.454 50.7013ZM73.2145 50.7013C73.2145 54.6494 73.6651 58.0433 74.5662 60.8831C75.5367 63.6537 76.9923 65.7662 78.9333 67.2208C80.9435 68.6753 83.5083 69.4026 86.6276 69.4026C89.8162 69.4026 92.381 68.6753 94.3219 67.2208C96.3321 65.7662 97.7878 63.6537 98.6889 60.8831C99.59 58.0433 100.041 54.6494 100.041 50.7013C100.041 46.684 99.5554 43.3247 98.5849 40.6234C97.6838 37.8528 96.2281 35.7749 94.2179 34.3896C92.277 32.9351 89.7469 32.2078 86.6276 32.2078C81.9139 32.2078 78.4827 33.8009 76.3338 36.987C74.2543 40.1732 73.2145 44.7446 73.2145 50.7013Z" fill="white"/>
<path d="M137.964 78.961L116.545 22.6493H130.374L141.603 55.1688C142.088 56.4848 142.539 57.9394 142.955 59.5325C143.371 61.0563 143.717 62.5801 143.995 64.1039C144.341 65.5584 144.549 66.8398 144.618 67.9481H145.034C145.173 66.7706 145.416 65.4545 145.762 64C146.109 62.4762 146.49 60.9524 146.906 59.4286C147.391 57.9048 147.842 56.4848 148.258 55.1688L159.487 22.6493H173.316L151.897 78.961H137.964Z" fill="white"/>
<path d="M204.395 21.6104C209.455 21.6104 213.787 22.6494 217.392 24.7273C221.066 26.7359 223.908 29.645 225.918 33.4545C227.928 37.1948 228.933 41.7662 228.933 47.1688V53.8182H191.709C191.848 58.9437 193.269 62.9264 195.973 65.7662C198.676 68.5368 202.419 69.9221 207.202 69.9221C210.876 69.9221 214.134 69.5758 216.976 68.8831C219.887 68.1212 222.868 67.0476 225.918 65.6623V76.1558C223.145 77.4719 220.268 78.4416 217.288 79.0649C214.307 79.6883 210.737 80 206.578 80C201.102 80 196.215 78.961 191.917 76.8831C187.689 74.7359 184.362 71.5152 181.936 67.2208C179.579 62.9264 178.4 57.5931 178.4 51.2208C178.4 44.7792 179.475 39.3766 181.624 35.013C183.842 30.5801 186.892 27.2554 190.774 25.039C194.655 22.7532 199.196 21.6104 204.395 21.6104ZM204.395 31.2727C200.929 31.2727 198.087 32.4156 195.869 34.7013C193.72 36.9177 192.437 40.2424 192.021 44.6753H216.248C216.248 42.0433 215.797 39.7229 214.896 37.7143C214.065 35.7056 212.782 34.1472 211.049 33.039C209.316 31.8615 207.098 31.2727 204.395 31.2727Z" fill="white"/>
<path d="M271.674 21.6104C272.505 21.6104 273.476 21.645 274.585 21.7143C275.694 21.7836 276.63 21.9221 277.392 22.1299L276.249 34.2857C275.625 34.1472 274.793 34.0433 273.753 33.974C272.783 33.8355 271.916 33.7662 271.154 33.7662C269.074 33.7662 267.064 34.1126 265.123 34.8052C263.251 35.4286 261.553 36.3983 260.028 37.7143C258.572 38.961 257.394 40.5887 256.493 42.5974C255.661 44.6061 255.245 46.9957 255.245 49.7662V78.961H242.144V22.6493H252.23L254.101 32.4156H254.725C255.834 30.4069 257.221 28.6061 258.884 27.013C260.548 25.3507 262.454 24.0346 264.603 23.0649C266.821 22.0952 269.178 21.6104 271.674 21.6104Z" fill="white"/>
<path d="M336.131 50.7013C336.131 55.4113 335.507 59.5671 334.26 63.1688C333.012 66.7706 331.21 69.8528 328.853 72.4156C326.565 74.9091 323.723 76.8139 320.327 78.1299C316.999 79.3766 313.291 80 309.201 80C305.319 80 301.749 79.3766 298.491 78.1299C295.234 76.8139 292.392 74.9091 289.965 72.4156C287.609 69.8528 285.772 66.7706 284.455 63.1688C283.138 59.5671 282.479 55.4113 282.479 50.7013C282.479 44.4675 283.553 39.2035 285.702 34.9091C287.851 30.5455 290.936 27.2554 294.956 25.039C299.046 22.7532 303.864 21.6104 309.409 21.6104C314.677 21.6104 319.287 22.7532 323.238 25.039C327.259 27.2554 330.412 30.5455 332.7 34.9091C334.987 39.2035 336.131 44.4675 336.131 50.7013ZM295.892 50.7013C295.892 54.6494 296.343 58.0433 297.244 60.8831C298.214 63.6537 299.67 65.7662 301.611 67.2208C303.621 68.6753 306.186 69.4026 309.305 69.4026C312.494 69.4026 315.059 68.6753 316.999 67.2208C319.01 65.7662 320.465 63.6537 321.366 60.8831C322.268 58.0433 322.718 54.6494 322.718 50.7013C322.718 46.684 322.233 43.3247 321.263 40.6234C320.361 37.8528 318.906 35.7749 316.895 34.3896C314.955 32.9351 312.424 32.2078 309.305 32.2078C304.592 32.2078 301.16 33.8009 299.011 36.987C296.932 40.1732 295.892 44.7446 295.892 50.7013Z" fill="white"/>
<path d="M362.776 18.8052C362.776 21.0216 362.672 23.2035 362.464 25.3506C362.326 27.4286 362.187 28.987 362.048 30.026H362.88C364.059 28.0866 365.514 26.5281 367.247 25.3506C368.98 24.1039 370.886 23.1688 372.966 22.5455C375.115 21.9221 377.333 21.6104 379.62 21.6104C383.849 21.6104 387.488 22.3377 390.538 23.7922C393.588 25.2468 395.91 27.4978 397.505 30.5455C399.168 33.5238 400 37.4372 400 42.2857V78.961H386.899V44.8831C386.899 40.5887 386.067 37.4026 384.403 35.3247C382.74 33.2468 380.106 32.2078 376.501 32.2078C373.035 32.2078 370.297 32.9697 368.287 34.4935C366.277 35.9481 364.856 38.1299 364.024 41.039C363.192 43.8788 362.776 47.3766 362.776 51.5325V78.961H349.675V0H362.776V18.8052Z" fill="white"/>
</svg>
