<?xml version="1.0" encoding="utf-8"?>
<!-- Generator: Adobe Illustrator 25.4.1, SVG Export Plug-In . SVG Version: 6.00 Build 0)  -->
<svg version="1.1" id="Layer_1" xmlns="http://www.w3.org/2000/svg" xmlns:xlink="http://www.w3.org/1999/xlink" x="0px" y="0px"
	 viewBox="0 0 750 293.5" style="enable-background:new 0 0 750 293.5;" xml:space="preserve">
<style type="text/css">
	.st0{fill:#6461E0;}
</style>
<g>
	<path class="st0" d="M163.5,0c8.8,0.7,17.1,2.8,24,8.7c11.8,10.1,18.2,22.9,18.5,38.6c0.1,4.4-3,8-6.9,8.4c-5,0.6-8.6-2.1-9.7-6.9
		c-1-4.8-2.8-9.2-5.3-13.4c-6.5-10.9-15.3-14.7-27.7-12c-15.6,3.4-29.4,10.6-42.1,19.9C73,73.6,45.5,113.2,33.9,163.4
		c-4.5,19.6-5.7,39.3-1.4,59.2c1.4,6.4,3.7,12.4,6.7,18.2c6.5,12.7,17,19.9,30.7,22.9c15.7,3.4,30.8,0.7,45.5-4.8
		c21-7.9,39.2-20.3,56.1-34.9c7.6-6.6,14.1-14.2,21.3-21c8.2-7.8,17.5-13.6,29-15c5.1-0.6,10.3-0.8,15.4,0.5
		c9.1,2.3,15,8.2,18.8,16.6c3.9,8.7,5.5,17.9,7.5,27.1c1.1,5.1,1.8,10.3,3.4,15.3c2.7,8.1,9.2,10.6,16.7,6.4c5.3-3,9.4-7.4,13.3-12
		c11-13,19.9-27.3,28.5-41.9c0.5-0.9,0.6-1.8,0.5-2.9c-2.2-13.7-2.6-27.5-3-41.3c-0.4-12.4-0.2-24.8,0.3-37.2
		c0.9-22.6,2.7-45,7.8-67.1c2-8.9,4.7-17.5,9.1-25.5c1.7-3.1,3.8-6.1,6.3-8.6c8.2-8.1,20.1-7.7,27.8,0.9c5.9,6.7,8.4,14.8,10.2,23.3
		c3.4,15.6,3.4,31.4,1.6,47.2c-4.1,35.4-14.9,68.8-31.2,100.5c-1.9,3.7-2.1,7-1.4,10.8c2.5,13.4,5.8,26.5,11.5,38.9
		c1.2,2.7,2.8,5.3,4.6,7.7c4.4,5.5,9.2,6.5,15.4,3.2c4.9-2.6,9-6.2,13.3-9.7c9.6-7.8,19.4-15.5,30.5-21.2c6.4-3.3,13.2-5.4,20.5-4
		c9.6,1.9,15.8,8,19.3,17c0.7,1.9,1.1,3.9,1.8,6.2c3.6-5.2,7-10.2,10.8-15c6.7-8.5,14-16.5,22.9-22.8c21.7-15.5,42.5-5.1,52.6,10.9
		c3.4,5.3,5.6,11.1,7.4,17.1c0.2,0.5,0.4,1.1,0.7,2c2.8-4.7,5.4-9.1,8.4-13.2c6.5-8.7,13.9-16.3,24.2-20.7
		c15.7-6.6,34.9-0.7,43.6,13.2c4.6,7.3,8.4,14.9,11.6,22.9c3.4,8.5,8.2,16,15.6,21.6c9.6,7.3,20.6,9.1,32.3,8.8
		c14.6-0.3,27.5-6.7,40.7-11.9c4.5-1.8,6-1.7,9,2.1c0,1.3,0,2.7,0,4c-1,0.9-1.9,2-3,2.9c-6.5,5.2-13.8,9.1-21.3,12.4
		c-15.9,7.1-32.3,11.5-49.9,9.1c-13-1.8-24-7.5-33-17.2c-8.3-9-13.5-19.7-16.8-31.4c-1.1-3.9-2.6-7.6-4.9-10.9
		c-4.3-6-9.8-7.2-16.1-3.4c-4.1,2.5-7.4,6-10.1,9.9c-5.3,7.6-8.4,16.2-11.9,24.7c-2.9,7-5.6,14.1-10.6,20c-8.4,9.9-22,7.7-27-4.3
		c-2-4.7-2.4-9.6-2.6-14.7c-0.2-7.6-0.2-15.1-1.4-22.7c-0.7-4.3-1.8-8.5-4.5-12c-4.7-6.4-10.6-7.9-17.8-4.6c-4.1,1.9-7.7,4.6-11,7.7
		c-11.2,10.5-19.7,23-26.6,36.6c-2.9,5.7-5.5,11.6-9.8,16.5c-3.4,4-7.8,4.5-12.5,3.2c-4.4-1.2-6.6-4.5-7.4-8.9
		c-0.6-3.7-0.3-7.5-0.3-11.2c-0.1-5.5-0.4-11-2.5-16.2c-2-4.8-3.1-5.2-7.5-2.5c-5.2,3.2-9.9,7.1-14.6,10.9
		c-9.8,7.8-19.3,15.9-30,22.4c-3.8,2.3-7.6,4.5-12.1,5.2c-14.7,2.2-26.1-3.7-35.2-14.9c-6.7-8.2-11-17.8-14.6-27.7
		c-0.9-2.5-1.7-4.9-2.6-7.8c-0.8,1.2-1.4,2-1.9,2.9c-8.1,12.4-16.7,24.3-27.7,34.3c-6,5.5-12.6,9.7-20.6,11.8
		c-17.1,4.6-30-2.2-35.8-18.9c-0.3-0.7-0.3-1.6-1.1-2.4c-1.9,3.7-4,7.1-6.5,10.3c-11.3,14.3-32.6,17.4-46.8,6.7
		c-7-5.3-10.8-12.5-12.8-20.8c-0.5-2.2-1-1.9-2.4-0.7c-25.1,23-54,38.1-88.4,41.2c-9,0.8-18,1.1-26.9-0.6
		c-12.6-2.4-23.6-8.4-33.1-17c-16.1-14.6-23.7-33.4-26.9-54.4c-0.5-3.1-0.3-6.2-1.5-9.2c0-8.3,0-16.7,0-25c1-2.3,0.6-4.9,0.9-7.3
		c2.5-25.9,10.5-50.2,21.9-73.4c16-32.3,39.4-58.2,68.4-79.1C112.7,11.3,135.9-0.5,163.5,0z M224.2,210c-1.2,0.1-2.3,0.1-3.5,0.4
		c-7.5,1.7-13.3,6-17.7,12.2c-5.9,8.4-7.6,17.5-4,27.2c1.8,5,5.5,8.2,11,8.5c7.1,0.4,12.2-3.4,16.4-8.6c6.5-8.1,8.6-18,10.9-27.9
		c0.1-0.3,0-0.6-0.1-1C236,214.4,230.9,210.1,224.2,210z M360.8,38.3c-2.2,3.1-3,6.3-3.8,9.4c-4.3,16.2-5.8,32.7-6.9,49.3
		c-1.2,17.8-1.5,35.6-1.4,53.4c0,1-0.1,2.1,0.5,3.2c0.3-0.6,0.5-1,0.7-1.3c13.6-31.3,19.3-63.9,15-97.9
		C364.2,49.1,363.2,43.8,360.8,38.3z"/>
</g>
</svg>
