<?xml version="1.0" encoding="UTF-8" standalone="no"?>
<!-- Created with Inkscape (http://www.inkscape.org/) -->

<svg
   width="264.58286mm"
   height="264.58319mm"
   viewBox="0 0 264.58286 264.58319"
   version="1.1"
   id="svg5218"
   inkscape:version="1.3.2 (091e20e, 2023-11-25, custom)"
   sodipodi:docname="Crunchyroll symbol 2024.svg"
   xml:space="preserve"
   xmlns:inkscape="http://www.inkscape.org/namespaces/inkscape"
   xmlns:sodipodi="http://sodipodi.sourceforge.net/DTD/sodipodi-0.dtd"
   xmlns="http://www.w3.org/2000/svg"
   xmlns:svg="http://www.w3.org/2000/svg"
   xmlns:rdf="http://www.w3.org/1999/02/22-rdf-syntax-ns#"
   xmlns:cc="http://creativecommons.org/ns#"
   xmlns:dc="http://purl.org/dc/elements/1.1/"><defs
     id="defs5212" /><sodipodi:namedview
     id="base"
     pagecolor="#ffffff"
     bordercolor="#666666"
     borderopacity="1.0"
     inkscape:pageopacity="0.0"
     inkscape:pageshadow="2"
     inkscape:zoom="0.30018805"
     inkscape:cx="518.00863"
     inkscape:cy="827.81443"
     inkscape:document-units="mm"
     inkscape:current-layer="layer1"
     showgrid="false"
     inkscape:window-width="1920"
     inkscape:window-height="991"
     inkscape:window-x="-9"
     inkscape:window-y="-9"
     inkscape:window-maximized="1"
     inkscape:showpageshadow="0"
     inkscape:pagecheckerboard="0"
     inkscape:deskcolor="#d1d1d1" /><metadata
     id="metadata5215"><rdf:RDF><cc:Work
         rdf:about=""><dc:format>image/svg+xml</dc:format><dc:type
           rdf:resource="http://purl.org/dc/dcmitype/StillImage" /></cc:Work></rdf:RDF></metadata><g
     inkscape:label="Layer 1"
     inkscape:groupmode="layer"
     id="layer1"
     transform="translate(-77.397904,-101.29801)"><path
       id="path13-7"
       style="font-variation-settings:normal;opacity:1;vector-effect:none;fill:#ff640a;fill-opacity:1;stroke-width:0.264583;stroke-linecap:butt;stroke-linejoin:miter;stroke-miterlimit:4;stroke-dasharray:none;stroke-dashoffset:0;stroke-opacity:1;-inkscape-stroke:none;stop-color:#000000;stop-opacity:1"
       d="M 209.82545,101.29806 C 136.75487,101.2356 77.466087,160.40105 77.397953,233.4537 c -0.06247,73.07057 59.102917,132.35978 132.155657,132.42749 3.0251,0 6.01624,-0.10516 8.98997,-0.29064 -60.91996,-3.72186 -109.14782,-54.3261 -109.07992,-116.164 h 10e-4 c 0.0625,-64.21683 52.18551,-116.23188 116.40257,-116.16397 61.48064,0.0624 111.76275,47.83531 115.87484,108.24551 0.14566,-2.58292 0.23864,-5.18315 0.23864,-7.78254 0.0625,-73.07054 -59.08588,-132.35938 -132.15563,-132.42749 z m 17.74135,50.67324 c -54.8369,-0.0417 -99.34229,44.35214 -99.39294,99.18903 -0.0417,54.8365 44.35215,99.3417 99.18906,99.39295 54.83622,0.0417 99.34167,-44.35282 99.39296,-99.20639 0,-6.21932 -0.56104,-12.28581 -1.64851,-18.19975 -8.25831,10.92664 -21.35938,17.99704 -36.12619,17.97994 l -10e-4,0.017 c -24.96282,-0.017 -45.18503,-20.28863 -45.15085,-45.2521 0.017,-19.57573 12.49061,-36.22969 29.90828,-42.50025 -13.78142,-7.27271 -29.48353,-11.40289 -46.17034,-11.41935 z" /></g></svg>
