<?xml version="1.0" encoding="UTF-8"?>
<svg id="logosandtypes_com" data-name="logosandtypes com" xmlns="http://www.w3.org/2000/svg" viewBox="0 0 150 150">
  <defs>
    <style>
      .cls-1 {
        fill: #da3940;
        fill-rule: evenodd;
      }

      .cls-2 {
        fill: none;
      }
    </style>
  </defs>
  <path class="cls-2" d="M0,0H150V150H0V0Z"/>
  <path class="cls-1" d="M39.79,133.56c-16.28,0-26.66-9.15-26.66-21.86,0-4.19,1.24-9.3,6.05-19.69H2.12l15.66-33.49H126.75c2.48,0,4.18-1.86,4.18-4.03s-1.7-4.03-4.18-4.03H38.55l7.75-16.59c4.8-10.23,15.19-16.9,26.51-16.9h37.05c21.39,0,37.2,14.72,37.2,33.94,0,22.79-20.93,41.08-45.11,41.08H30.34c-2.17,4.49,.31,8.06,5.58,8.06h57.04c9.46,0,16.74,6.66,16.74,15.19,0,9.77-9.45,18.29-20.15,18.29H39.79Z"/>
</svg>