<?xml version="1.0" encoding="UTF-8"?>
<!-- Generated by Pixelmator Pro 3.6.18 -->
<svg width="530" height="459" viewBox="0 0 530 459" xmlns="http://www.w3.org/2000/svg">
    <path id="Percorso" fill="#11a59d" stroke="none" d="M 628.768005 134.699005 C 628.768005 117.923004 642.026978 104.641998 658.812012 104.641998 L 811.778015 104.641998 C 815.370972 104.621002 818.932007 105.313995 822.255981 106.679016 C 825.578979 108.044983 828.598999 110.056 831.140015 112.596985 C 833.679993 115.138 835.692017 118.156982 837.057007 121.481018 C 838.422974 124.804016 839.11499 128.365997 839.094971 131.958984 C 839.117981 135.552002 838.427002 139.11499 837.062012 142.438995 C 835.697021 145.763 833.685974 148.783997 831.14502 151.324005 C 828.604004 153.86499 825.583008 155.876007 822.257996 157.23999 C 818.934021 158.60498 815.370972 159.294983 811.778015 159.270996 L 688.856018 159.270996 L 688.856018 217.419006 L 794.210999 217.419006 C 797.804993 217.395996 801.367004 218.085999 804.692017 219.451004 C 808.017029 220.815994 811.038025 222.826996 813.578979 225.367996 C 816.120972 227.908997 818.132996 230.929993 819.497986 234.253998 C 820.862976 237.578995 821.554016 241.141006 821.531982 244.735001 C 821.55603 248.328995 820.86499 251.891998 819.5 255.216995 C 818.13501 258.541992 816.124023 261.562988 813.58197 264.104004 C 811.039978 266.644989 808.018982 268.656006 804.692993 270.019989 C 801.367981 271.382996 797.804993 272.072998 794.210999 272.048004 L 688.856018 272.048004 L 688.856018 350.108002 C 688.856018 366.865997 675.593018 380.138 658.812012 380.138 C 642.026978 380.138 628.768005 366.862 628.768005 350.108002 L 628.768005 134.699005 Z M 860.84198 132.363007 C 860.84198 115.569 874.099976 102.306 890.885986 102.306 C 907.65802 102.306 920.926025 115.563995 920.926025 132.363007 L 920.926025 323.167999 L 1032.140015 323.167999 C 1035.73999 323.14801 1039.300049 323.841003 1042.619995 325.207001 C 1045.949951 326.572998 1048.969971 328.585999 1051.51001 331.127991 C 1054.050049 333.670013 1056.060059 336.691986 1057.420044 340.016998 C 1058.790039 343.34201 1059.47998 346.904999 1059.459961 350.497986 C 1059.47998 354.09201 1058.790039 357.653992 1057.420044 360.977997 C 1056.060059 364.302002 1054.050049 367.321991 1051.51001 369.863007 C 1048.969971 372.403992 1045.949951 374.415009 1042.619995 375.779999 C 1039.300049 377.144989 1035.73999 377.837006 1032.140015 377.815002 L 890.885986 377.815002 C 874.099976 377.815002 860.84198 364.552002 860.84198 347.752991 L 860.84198 132.363007 Z M 1074.26001 339.175995 L 1169.47998 124.162994 C 1176.109985 109.324005 1188.199951 100.369019 1204.589966 100.369019 L 1208.109985 100.369019 C 1224.48999 100.369019 1236.199951 109.328003 1242.829956 124.162994 L 1338.050049 339.175995 C 1339.98999 343.471985 1341.170044 347.371002 1341.170044 351.270996 C 1341.170044 367.270996 1328.689941 380.147003 1312.680054 380.147003 C 1298.640015 380.147003 1289.27002 371.951996 1283.810059 359.471008 L 1265.459961 316.55899 L 1145.27002 316.55899 L 1126.160034 361.429993 C 1121.079956 373.115997 1110.939941 380.147003 1098.459961 380.147003 C 1082.839966 380.147003 1070.73999 367.665985 1070.73999 352.053009 C 1070.73999 347.748993 1072.300049 343.471985 1074.26001 339.175995 Z M 1243.22998 263.471008 L 1205.380005 173.315979 L 1167.51001 263.471008 L 1243.22998 263.471008 Z M 1398.390015 160.070984 L 1340.619995 160.070984 C 1325.390015 160.070984 1312.910034 147.575989 1312.910034 132.363007 C 1312.910034 117.132019 1325.400024 104.645996 1340.619995 104.645996 L 1516.219971 104.645996 C 1531.439941 104.645996 1543.920044 117.132019 1543.920044 132.363007 C 1543.920044 147.575989 1531.439941 160.070984 1516.219971 160.070984 L 1458.469971 160.070984 L 1458.469971 350.112 C 1458.469971 366.871002 1445.189941 380.143005 1428.430054 380.143005 C 1411.640015 380.143005 1398.390015 366.865997 1398.390015 350.112 L 1398.390015 160.070984 Z"/>
    <path id="path1" fill="#11a59d" stroke="none" d="M 1566.069946 132.363007 C 1566.069946 115.567993 1579.329956 102.304993 1596.119995 102.304993 C 1612.890015 102.304993 1626.150024 115.563995 1626.150024 132.363007 L 1626.150024 350.115997 C 1626.180054 354.067993 1625.430054 357.987 1623.930054 361.644012 C 1622.430054 365.299988 1620.219971 368.622986 1617.420044 371.416992 C 1614.630005 374.212006 1611.310059 376.423004 1607.650024 377.92099 C 1603.98999 379.420013 1600.079956 380.177002 1596.119995 380.147003 C 1579.329956 380.147003 1566.069946 366.871002 1566.069946 350.115997 L 1566.069946 132.363007 Z M 1661.640015 242.016998 L 1661.640015 241.222 C 1661.640015 163.575012 1720.170044 99.968994 1804.069946 99.968994 C 1845.02002 99.968994 1872.72998 110.886993 1895.380005 127.677002 C 1901.599976 132.358002 1907.089966 140.934998 1907.089966 151.471008 C 1907.089966 167.869995 1893.829956 180.742981 1877.410034 180.742981 C 1869.219971 180.742981 1863.77002 177.625 1859.449951 174.884003 C 1842.680054 162.389008 1825.119995 155.371002 1803.650024 155.371002 C 1757.619995 155.371002 1724.449951 193.619019 1724.449951 240.449005 L 1724.449951 241.216995 C 1724.449951 288.042999 1756.839966 327.071991 1803.650024 327.071991 C 1829.040039 327.071991 1845.810059 319.27301 1862.98999 305.601013 C 1867.650024 301.718994 1873.910034 298.977997 1880.930054 298.977997 C 1896.160034 298.977997 1909.02002 311.472992 1909.02002 326.677002 C 1909.02002 336.031006 1904.329956 343.46701 1898.890015 348.148987 C 1874.290039 369.619995 1845.430054 382.497009 1801.709961 382.497009 C 1721.339966 382.501007 1661.640015 320.445007 1661.640015 242.016998 Z M 1923.160034 242.016998 L 1923.160034 241.222 C 1923.160034 163.575012 1984.410034 99.968994 2068.699951 99.968994 C 2153.01001 99.968994 2213.459961 162.789001 2213.459961 240.453003 L 2213.459961 241.222 C 2213.459961 318.877014 2152.22998 382.501007 2067.909912 382.501007 C 1983.640015 382.501007 1923.160034 319.677002 1923.160034 242.016998 Z M 2150.639893 242.016998 L 2150.639893 241.222 C 2150.639893 194.410004 2116.330078 155.380005 2067.909912 155.380005 C 2019.530029 155.380005 1985.959961 193.627991 1985.959961 240.457993 L 1985.959961 241.225998 C 1985.959961 288.050995 2020.300049 327.080994 2068.699951 327.080994 C 2117.120117 327.076996 2150.639893 288.84201 2150.639893 242.016998 Z M 2248.399902 133.127014 C 2248.399902 116.364014 2261.679932 103.087006 2278.459961 103.087006 L 2284.679932 103.087006 C 2299.129883 103.087006 2307.699951 110.117981 2315.899902 120.644989 L 2431.800049 272.842987 L 2431.800049 131.963013 C 2431.800049 128.067017 2432.570068 124.208008 2434.060059 120.608002 C 2435.550049 117.007996 2437.73999 113.737 2440.48999 110.983002 C 2443.25 108.229004 2446.52002 106.044006 2450.120117 104.554993 C 2453.719971 103.06601 2457.580078 102.302002 2461.47998 102.304993 C 2465.370117 102.306 2469.22998 103.074005 2472.820068 104.565002 C 2476.419922 106.056 2479.689941 108.240997 2482.439941 110.994995 C 2485.189941 113.748993 2487.370117 117.018005 2488.860107 120.615997 C 2490.350098 124.213989 2491.110107 128.070007 2491.110107 131.963013 L 2491.110107 349.316986 C 2491.110107 366.106995 2477.840088 379.36499 2461.070068 379.36499 L 2459.129883 379.36499 C 2444.659912 379.36499 2436.090088 372.342987 2427.889893 361.807007 L 2307.709961 204.160004 L 2307.709961 350.489014 C 2307.610107 358.290985 2304.449951 365.73999 2298.899902 371.221985 C 2293.350098 376.704987 2285.860107 379.779999 2278.060059 379.779999 C 2270.26001 379.779999 2262.77002 376.704987 2257.219971 371.221985 C 2251.669922 365.73999 2248.5 358.290985 2248.409912 350.489014 L 2248.409912 133.127014 L 2248.399902 133.127014 Z"/>
    <path id="path2" fill="#11a59d" stroke="none" d="M 214.688004 252.237 L 270.286011 252.237 L 319.838013 169.899994 L 165.001999 169.899994 L 113.931 85.235718 L 370.776001 85.235718 L 420.324005 2.889648 L 41.0103 2.889648 C 33.712799 2.888367 26.5462 4.827545 20.2451 8.508514 C 13.943899 12.189392 8.7349 17.479706 5.1519 23.837097 C 1.5652 30.186707 -0.26978 37.375397 -0.1652 44.667297 C -0.06062 51.959198 1.97977 59.092407 5.7471 65.336487 L 229.524002 436.229004 C 233.190002 442.299988 238.362 447.320007 244.539993 450.803986 C 250.717987 454.286987 257.690002 456.11499 264.782013 456.109985 C 271.872009 456.114014 278.842987 454.285004 285.018005 450.802002 C 291.192993 447.317993 296.364014 442.299011 300.028015 436.229004 L 312.899994 414.890991 L 214.688004 252.237 Z"/>
    <path id="path3" fill="#11a59d" stroke="none" d="M 415.468994 85.235718 L 415.606995 85.235718 L 415.606995 85.253418 L 511.780029 85.27121 L 523.794983 65.336487 C 527.562988 59.092407 529.604004 51.958893 529.708008 44.666809 C 529.810974 37.374603 527.974976 30.185913 524.385986 23.837097 C 520.80603 17.480103 515.598999 12.189911 509.299988 8.50882 C 503.001007 4.827759 495.837006 2.888428 488.540985 2.889648 L 465.026001 2.889648 L 415.468994 85.235718 Z M 391.998993 124.398987 L 287.324005 298.204987 L 335.269012 377.792999 L 488.167999 124.398987 L 391.998993 124.398987 Z"/>
</svg>
