<?xml version="1.0" encoding="utf-8"?>
<!-- Generator: Adobe Illustrator 25.4.1, SVG Export Plug-In . SVG Version: 6.00 Build 0)  -->
<svg version="1.0" id="katman_1" xmlns:sketch="http://www.bohemiancoding.com/sketch/ns"
	 xmlns="http://www.w3.org/2000/svg" xmlns:xlink="http://www.w3.org/1999/xlink" x="0px" y="0px" viewBox="0 0 2094.8 1352"
	 style="enable-background:new 0 0 2094.8 1352;" xml:space="preserve">
<style type="text/css">
	.st0{fill-rule:evenodd;clip-rule:evenodd;fill:#96DC14;}
	.st1{fill-rule:evenodd;clip-rule:evenodd;fill:#232323;}
</style>
<g id="Page-1" sketch:type="MSPage">
	<g id="hellofresh-logo" sketch:type="MSLayerGroup">
		<path id="Shape" sketch:type="MSShapeGroup" class="st0" d="M850,501.1c5.6,9.6,5.7,21.4,0.3,31.1
			c-19.1,29.8-27.7,65.1-24.4,100.3v-0.1c6.6,98.7-48.4,202.2-148.5,260.5c-100.1,58.3-217.2,54.9-299.6,0.3v0.1
			c-28.9-20.3-63.9-30.3-99.2-28.4c-11.1-0.1-21.3-6.1-26.8-15.7s-5.7-21.4-0.3-31.1c19.1-29.8,27.7-65.1,24.4-100.3v0.1
			c-6.5-98.7,48.5-202.2,148.6-260.4c100.1-58.3,217.2-54.9,299.6-0.3c29,20.3,63.9,30.3,99.2,28.4
			C834.2,485.7,844.4,491.6,850,501.1L850,501.1z"/>
		<path id="Shape_00000098189540990962924460000012997295908295351940_" sketch:type="MSShapeGroup" class="st1" d="M1303.3,887
			V688.1h140.6v44.4h-85.2v34.2h73.9v38.2h-73.9v37.5h88.1V887H1303.3L1303.3,887z M1785.6,887v-84.5l-2.2,0.8
			c-21.5,7.4-43.9,11.6-66.6,12.5h-1.7v71.2h-57.8V688.1h57.8v83.3h1.7c1.4,0,29.9-0.2,67.7-12.7l1.2-0.4v-70.2h57.8V887H1785.6
			L1785.6,887z M950.2,886.8V688.6H1090V737h-82.2v39.1h65.3v42h-65.3v68.7H950.2L950.2,886.8z M1161.2,662.7V463.8h144.3v44.4h-89
			v34.1h73.9v38.2h-73.9V618h88.1v44.7L1161.2,662.7L1161.2,662.7z M1484.8,662.6V463.7h57.9V614h78.9v48.6H1484.8L1484.8,662.6z
			 M1327.8,662.6V463.7h57.9V614h78.9v48.6H1327.8L1327.8,662.6z M1738,667.8c-21.1,0-38.4-4-56-13c-16.3-8.1-30-20.8-39.3-36.5
			c-9.3-15.7-13.9-34.2-13.9-55.1s4.6-39.4,13.9-55.1c9.3-15.7,22.9-28.4,39.2-36.5c17.6-9,34.9-12.9,56-12.9s38.4,4,56,12.9
			c16.3,8.1,30,20.8,39.3,36.5c9.3,15.7,14,34.2,14,55.1s-4.7,39.4-14,55.1c-9.3,15.7-23,28.4-39.3,36.5
			C1776.4,663.8,1759.1,667.8,1738,667.8L1738,667.8z M1738,507.4c-9.5-0.2-18.9,2.2-27.1,6.9c-8.1,4.5-14.7,11.4-19,19.6
			c-4.4,8.4-6.7,18.3-6.7,29.5c0,11.2,2.2,21.1,6.7,29.5c4.3,8.2,10.9,15,19,19.5c17,8.9,37.2,8.9,54.2,0
			c8.2-4.5,14.8-11.2,19.2-19.4c4.5-8.4,6.8-18.3,6.8-29.5c0-11.1-2.3-21.1-6.8-29.5c-4.4-8.2-11-15-19.1-19.6
			C1756.8,509.5,1747.5,507.2,1738,507.4L1738,507.4z M1078.6,662.6v-84.5l-2.2,0.8c-21.5,7.3-43.9,11.6-66.6,12.5h-1.7v71.2h-57.8
			V463.7h57.8V547h1.7c1.4,0,29.9-0.2,67.7-12.7l1.2-0.4v-70.3h57.8v198.9H1078.6L1078.6,662.6z M1550.3,890.7c-2,0-4,0-6-0.1
			c-15.1-0.4-29.9-3.5-43.8-9.3c-12.9-5.5-23.5-13.2-31.4-22.7c-3.6-4.3-6.5-9-8.8-14l45.3-24c1,5,3.2,9.8,6.3,13.8
			c4,5,9.1,8.9,15,11.3c6.9,2.9,14.3,4.5,21.8,4.6h2.8c5,0.1,10-0.6,14.9-1.9c4.5-1.2,8.7-3.4,12.2-6.5c3-2.7,4.8-6.5,5-10.5
			c0.4-4.7-1.7-9.2-5.5-12c-3.9-2.9-8.3-5-12.9-6.2c-4.9-1.4-12.6-3.2-23.1-5.3c-16.1-3-29.5-6.4-39.8-10
			c-10.2-3.6-19.3-9.9-26.3-18.2c-7.3-8.4-10.7-20.3-10.1-35.4c0.5-13.1,4.3-24.7,11.4-34.4c7.1-9.7,17-17.1,29.3-22
			c12-4.5,24.8-6.8,37.7-6.6c1.6,0,3.3,0,5,0.1c13,0.3,25.9,3,37.9,8c10.5,4.4,19.9,11.2,27.5,19.8c3.6,4.2,6.6,8.9,8.9,14l-41.5,22
			c-1.2-6.4-4.7-12.1-9.8-16c-5.8-4.5-13.2-7-22.2-7.4h-2.1c-4,0-8.1,0.5-11.9,1.6c-3.8,1-7.3,3.1-10,5.9c-2.5,2.7-3.9,6.2-4,9.9
			c-0.3,4.6,1.7,9,5.4,11.7c3.7,2.8,7.9,4.8,12.4,6c4.6,1.2,12.3,2.9,23,5c13.5,2.3,26.8,5.5,39.8,9.6c10.5,3.5,19.8,9.8,27,18.2
			c7.4,8.5,10.8,20.5,10.3,35.8c-0.3,12.9-4.8,25.3-12.9,35.3c-8.1,10-19.4,17.6-33.5,22.8C1580.4,888.4,1566,890.7,1550.3,890.7
			L1550.3,890.7z M1278.9,889.6c-11.3,0.1-22.5-1.6-33.2-5c-6-2-11.7-4.5-17.3-7.5c-5.5-3.1-10.7-6.6-15.5-10.6
			c-9.3-7.8-17.4-17-23.8-27.3c-3.1-4.9-5.9-10.1-8.4-15.4c-0.7-1.6-1.4-3.2-2-4.7l-0.4-1h-11.2v69.5h-57.8V688.6h90.2
			c16.1,0,30.4,2.8,42.8,8.2c12.4,5.4,21.8,13.1,28.5,23c6.7,10.1,10.2,22,10,34.1c0.1,7.8-1.5,15.6-4.8,22.7
			c-3.2,6.8-8.1,12.8-14,17.4c-7.6,5.6-16,10.1-24.9,13.2l-1.8,0.6l1.5,3c3,5.6,6.8,10.8,11.4,15.2c2.1,2.1,4.5,3.9,6.9,5.6
			c2.5,1.6,5.1,3,7.8,4.1c5.4,2.1,11.2,3.4,17,3.8v50.2H1278.9L1278.9,889.6z M1167.1,779.5h25.3c5.1,0,10.2-1,14.9-3.1
			c4.5-2,8.4-5,11.4-8.8c2.9-3.8,4.5-8.4,4.4-13.2c0.1-4.9-1.5-9.6-4.4-13.5c-3-3.9-6.9-6.9-11.4-8.8c-4.7-2.1-9.8-3.1-14.9-3.1
			h-25.3V779.5L1167.1,779.5z"/>
	</g>
</g>
</svg>
