<?xml version="1.0" encoding="UTF-8"?>
<!-- Generated by Pixelmator Pro 3.6.18 -->
<svg width="478" height="478" viewBox="0 0 478 478" xmlns="http://www.w3.org/2000/svg">
    <path id="path4584" fill="#006a33" stroke="none" d="M -572.082581 413.936798 C -591.831665 411.08609 -615.419678 403.851196 -617.865112 399.894501 C -618.449707 398.948486 -619.644165 400.0383 -621.011963 402.765594 C -625.145935 411.008514 -623.304626 410.838196 -695.216553 409.6297 C -731.149841 409.025909 -782.149841 408.531799 -808.549866 408.531799 C -834.94989 408.531799 -857.299866 408.046387 -858.216553 407.453094 C -860.891479 405.721893 -860.139893 402.634491 -856.883179 401.976105 C -855.233215 401.642487 -850.196045 401.046814 -845.689514 400.652405 C -830.908875 399.358704 -827.710632 396.391693 -824.27655 380.787689 C -822.456604 372.518005 -822.087891 353.531494 -821.597046 242.808105 C -820.982727 104.223511 -821.318542 94.812592 -827.151672 87.164978 C -830.499512 82.775787 -839.824463 78.531799 -846.120728 78.531799 L -849.216553 78.531799 L -849.234741 103.531799 C -849.255554 132.138702 -849.615417 134.531799 -853.896057 134.531799 C -857.389954 134.531799 -858.549866 132.283295 -858.549866 125.510406 C -858.549866 117.318695 -863.289734 109.5914 -871.023865 105.174194 C -882.979797 98.345886 -893.417908 96.786194 -937.681213 95.213684 L -957.479248 94.510406 L -956.826355 228.854507 C -956.168274 364.281311 -955.634766 379.321289 -951.183228 387.929596 C -946.922424 396.169006 -942.644897 397.76651 -919.898804 399.613098 C -910.291626 400.393005 -908.508484 400.910706 -908.100952 403.038696 C -907.836853 404.417511 -908.274963 405.94989 -909.074524 406.444092 C -911.11969 407.708008 -1058.849854 407.358704 -1060.883179 406.084991 C -1063.306885 404.566895 -1062.92334 401.48291 -1060.216553 400.724396 C -1058.933228 400.364899 -1051.505005 399.6716 -1043.709473 399.183807 C -1026.790405 398.125214 -1022.309692 396.008698 -1018.432861 387.244507 C -1013.387573 375.838806 -1012.982727 365.381592 -1012.27655 228.218704 L -1011.588379 94.572296 L -1028.735718 95.294586 C -1059.781982 96.602295 -1081.810303 98.391998 -1086.549805 99.991699 C -1094.693848 102.740417 -1099.504272 107.411896 -1103.932007 116.871796 C -1106.24707 121.818115 -1108.598633 126.765198 -1109.157593 127.865204 C -1109.716553 128.96521 -1111.30835 129.865204 -1112.69519 129.865204 C -1116.071777 129.865204 -1116.991333 123.307617 -1117.117676 98.325378 L -1117.216431 78.785583 L -1122.883179 79.509094 C -1133.429932 80.855591 -1139.79895 86.086487 -1142.5802 95.686096 C -1144.613647 102.70459 -1145.060303 119.083191 -1147.323486 269.639709 C -1148.446045 344.315704 -1149.916382 406.865692 -1150.59082 408.639709 C -1152.119263 412.65979 -1155.699341 412.775696 -1160.547729 408.961914 C -1163.909668 406.317413 -1260.828491 301.08551 -1342.995117 210.865204 C -1361.19458 190.881805 -1376.287354 174.531799 -1376.534546 174.531799 C -1376.781616 174.531799 -1376.716797 187.281799 -1376.390381 202.865204 C -1376.063843 218.448486 -1375.220703 260.898499 -1374.516602 297.198486 C -1373.812622 333.498505 -1372.610352 367.098511 -1371.844849 371.865204 C -1371.079468 376.631805 -1368.96106 383.620087 -1367.137207 387.394592 C -1362.85022 396.267212 -1357.964111 398.671906 -1342.422974 399.558105 C -1329.054932 400.320313 -1326.496704 401.302185 -1328.695679 404.827209 C -1330.098633 407.076294 -1336.748657 407.184601 -1457.71875 406.929504 C -1527.86792 406.781586 -1585.88562 406.275696 -1586.646729 405.805206 C -1587.407959 405.334808 -1587.842529 403.972504 -1587.612427 402.778015 C -1587.292847 401.118103 -1584.449219 400.24231 -1575.549805 399.062897 C -1569.145386 398.214203 -1562.35022 396.500793 -1560.449585 395.255402 C -1550.970703 389.044586 -1550.316406 377.411102 -1550.810791 223.865204 C -1551.21582 98.049194 -1551.220703 97.856079 -1554.091797 91.644287 C -1557.997437 83.193909 -1561.800171 81.075592 -1576.276611 79.286102 C -1585.730957 78.11731 -1588.626587 77.2771 -1588.947754 75.6091 C -1589.176758 74.419983 -1588.628906 72.992706 -1587.730225 72.437286 C -1585.23877 70.897491 -1459.984375 71.230499 -1458.433838 72.781097 C -1455.25647 75.958496 -1458.745972 78.206482 -1468.296021 79.134583 C -1481.567261 80.424194 -1488.125854 83.540497 -1491.199219 90.016907 C -1493.185181 94.202301 -1493.893066 100.564789 -1494.890503 123.196899 C -1496.427856 158.076508 -1495.110107 367.127502 -1493.290039 377.099792 C -1491.731201 385.6409 -1486.740967 392.459015 -1479.145508 396.425507 C -1474.987183 398.596985 -1470.779419 399.274902 -1459.089355 399.656708 C -1435.69519 400.420685 -1425.671021 397.2901 -1417.063721 386.531799 C -1408.865112 376.28421 -1409.121338 380.165985 -1401.282593 147.531311 C -1399.732422 101.527191 -1398.074097 68.134399 -1397.264404 66.621582 C -1395.577393 63.469208 -1391.431519 62.021393 -1387.160767 63.093292 C -1383.980713 63.891479 -1348.936401 101.884399 -1241.941162 220.531799 C -1214.165894 251.331802 -1187.869263 280.431793 -1183.50415 285.198486 L -1175.567505 293.865204 L -1176.291016 198.531799 C -1176.771729 135.190704 -1177.513306 101.229706 -1178.50061 97.331787 C -1181.693359 84.725891 -1188.183716 80.272583 -1205.2854 78.953796 C -1212.790527 78.375092 -1216.3479 77.538696 -1216.848145 76.235199 C -1218.628906 71.594391 -1215.339111 71.272278 -1165.777222 71.235107 L -1117.064941 71.19809 L -1114.589233 67.916504 C -1112.203003 64.753479 -1111.878174 64.69519 -1105.600708 66.304077 C -1091.777954 69.846802 -1071.959106 70.484802 -975.030457 70.50769 C -889.803406 70.52771 -873.208618 70.2211 -863.888611 68.453186 C -853.775757 66.53479 -852.74469 66.545105 -850.48761 68.587799 C -848.253845 70.609314 -839.669067 70.789001 -751.210327 70.665894 C -670.696533 70.553894 -652.763733 70.194397 -644.797424 68.53241 C -639.527893 67.433105 -634.530701 66.533081 -633.692505 66.532501 C -631.224854 66.532501 -630.725525 69.641602 -632.070618 76.636414 C -632.764648 80.2453 -634.148804 93.919098 -635.146606 107.022583 C -637.00177 131.38562 -638.204407 135.603607 -642.79364 133.842499 C -644.221497 133.294617 -645.092957 130.391907 -645.663269 124.28421 C -646.587952 114.382111 -650.534363 105.055206 -655.052002 102.095215 C -663.404358 96.622498 -671.302246 95.648895 -717.216492 94.431702 C -758.254211 93.343811 -762.018616 93.428711 -763.549866 95.477692 C -766.074341 98.855591 -765.950806 211.684204 -763.418762 215.146912 C -761.69751 217.500916 -759.44519 217.551392 -710.418762 216.335083 C -655.021362 214.960815 -653.657898 214.764282 -646.479187 207.122986 C -644.795715 205.330994 -642.259827 203.864807 -640.843994 203.864807 C -638.59729 203.864807 -638.356506 204.585907 -638.951843 209.531403 C -639.327026 212.648102 -640.681763 228.698105 -641.962402 245.198105 C -644.373047 276.258392 -645.495422 280.839508 -649.816162 277.253601 C -650.953064 276.310211 -651.883179 273.541199 -651.883179 271.100494 C -651.883179 263.259003 -654.697205 253.227493 -657.997009 249.305893 C -664.570435 241.493896 -668.242371 240.897507 -717.216492 239.687393 C -758.765198 238.660904 -762.004395 238.744904 -763.619446 240.891006 C -764.996704 242.7211 -765.272339 254.775894 -764.952759 299.19809 C -764.589172 349.733612 -764.315552 355.718506 -762.148926 360.531403 C -758.710327 368.1698 -752.739929 373.782806 -743.773499 377.806702 C -730.10968 383.938599 -718.131653 385.595001 -686.549866 385.719788 C -652.880432 385.852905 -645.170654 384.348206 -635.384888 375.734406 C -626.565308 367.9711 -623.461182 358.712494 -619.26062 327.640503 C -617.819092 316.977509 -610.740479 314.87619 -608.8349 324.545593 C -603.659058 350.809387 -599.195679 360.799103 -587.339966 372.654907 C -573.750305 386.244598 -557.857178 392.611694 -533.859009 394.080597 C -486.68457 396.968109 -454.254517 369.543488 -461.07605 332.531403 C -465.22583 310.015808 -481.457886 291.854187 -521.216431 265.241913 C -554.000488 243.298203 -564.812256 235.047607 -579.685852 220.623779 C -605.896179 195.205994 -616.293823 174.029907 -616.393311 145.864807 C -616.469788 124.200195 -610.473022 110.064789 -594.511658 94.286377 C -585.949951 85.822906 -581.748291 82.877808 -570.348877 77.350098 C -545.688232 65.391998 -525.296997 61.793213 -488.549927 62.913605 C -464.70874 63.640594 -435.13208 67.580688 -427.883179 70.995483 L -424.549927 72.565796 L -424.192627 104.92511 C -423.963135 125.72171 -424.33728 138.221893 -425.239624 139.907898 C -426.048462 141.419189 -428.026123 142.531403 -429.904663 142.531403 C -433.273926 142.531403 -433.520508 142.0289 -435.139526 131.864807 C -436.492432 123.372498 -443.592651 110.583984 -450.932617 103.419617 C -464.915405 89.770996 -481.922729 83.501282 -505.216431 83.408081 C -527.110474 83.320099 -542.681763 88.380707 -553.815063 99.201111 C -562.599609 107.738586 -565.870605 115.801392 -565.714172 128.531403 C -565.42749 151.875183 -553.832153 165.062012 -505.883179 196.574707 C -463.871948 224.184906 -438.814209 245.049393 -425.802734 263.254211 C -420.052002 271.300201 -410.549927 289.674408 -410.549927 292.748505 C -410.549927 293.642487 -410.002319 294.712494 -409.33313 295.126099 C -408.220703 295.813507 -344.20105 210.235107 -275.230957 115.864807 C -242.371216 70.903381 -240.900513 69.19809 -234.985718 69.19809 C -226.799561 69.19809 -227.164795 66.792603 -219.891235 168.630402 C -206.560425 355.280701 -205.582886 365.764099 -199.745117 384.66449 C -195.236694 399.261108 -188.573853 403.810303 -171.64502 403.850098 C -167.690674 403.860107 -164.616821 404.654907 -163.248535 406.023193 C -161.259521 408.012299 -161.264038 408.373901 -163.307495 410.631195 C -164.526733 411.978485 -168.005127 413.426086 -171.037476 413.848206 C -174.06958 414.270294 -200.850586 414.146698 -230.550537 413.573608 L -284.550537 412.531403 L -284.977417 409.525513 C -285.408691 406.488007 -284.827637 406.065399 -278.234131 404.621613 C -270.41333 402.909088 -270.383911 402.62561 -272.505127 349.4245 C -273.563843 322.867004 -274.792725 300.551605 -275.235718 299.834808 C -275.734619 299.026794 -293.439209 298.531403 -321.814453 298.531403 C -363.513794 298.531403 -367.82312 298.739105 -370.228027 300.864807 C -375.709839 305.709686 -438.550171 398.423889 -438.550171 401.666809 C -438.550171 405.610901 -436.433105 406.531403 -427.362549 406.531403 C -419.58374 406.531403 -414.162476 409.281708 -416.754761 411.912903 C -417.828369 413.002686 -428.293457 413.578796 -451.421387 413.821106 C -469.642212 414.011993 -501.35022 414.533905 -521.883423 414.980896 C -550.348755 415.600494 -562.272949 415.352386 -572.082886 413.936401 Z M -276.561401 275.883698 C -275.770264 274.60379 -279.228149 195.590607 -280.693726 181.455902 C -281.09729 177.564087 -281.951782 174.564087 -282.592651 174.789185 C -284.591797 175.491302 -353.120605 274.941803 -352.404175 276.101013 C -351.412231 277.705811 -277.556641 277.494293 -276.561401 275.883698 Z M 659.450195 414.410309 C 637.050537 411.358612 614.649658 404.268585 611.311768 399.174194 C 609.560303 396.501312 609.321045 390.658508 609.6875 359.48819 C 610.138428 321.094788 610.548096 318.531799 616.233398 318.531799 C 619.246826 318.531799 621.450195 322.373199 621.450195 327.626404 C 621.450195 334.324005 627.418945 352.581207 632.216064 360.556396 C 645.041992 381.88031 671.027832 394.572998 701.727295 394.508698 C 731.363037 394.446686 755.767822 381.948395 765.469238 361.865204 C 771.534668 349.30899 770.438232 330.983002 762.717041 315.865204 C 754.388672 299.558807 741.710693 287.855713 707.450195 264.848694 C 675.809814 243.601105 664.645752 235.052994 649.625 220.573486 C 623.664307 195.548096 613.040527 173.606293 613.130859 145.198486 C 613.254639 106.167908 641.37915 77.589203 690.698486 66.378296 C 717.801758 60.217407 768.957031 62.141388 799.951904 70.487396 L 805.450195 71.967896 L 805.450195 105.140808 C 805.450195 123.385895 805.086182 139.262817 804.640869 140.422791 C 803.551514 143.261902 797.839844 143.107483 796.344971 140.198486 C 795.685303 138.915222 794.816162 135.27771 794.413818 132.115204 C 792.625 118.064514 778.845947 100.336395 763.450195 92.277405 C 751.446533 85.993988 740.549316 83.653381 723.528564 83.702881 C 701.029053 83.76889 688.235352 87.992004 676.071045 99.370483 C 667.53418 107.355591 663.820557 116.215302 663.820557 128.596191 C 663.820557 151.420197 676.388428 165.674896 724.116943 196.985107 C 757.089844 218.615723 771.952881 230.110901 788.878418 247.072296 C 812.9104 271.155396 821.29541 288.679596 822.432373 317.198486 C 823.18042 335.963287 821.015625 346.501099 813.408691 361.122498 C 803.856689 379.482513 783.56543 396.589691 761.032959 405.278992 C 740.751465 413.100494 730.453857 414.728912 698.116943 415.228607 C 681.983643 415.477905 664.583496 415.109711 659.450195 414.410309 Z M 1954.438965 414.396301 C 1929.87207 411.681488 1906.742432 403.893707 1886.68335 391.582703 C 1871.837158 382.471008 1850.920654 361.724487 1840.708008 345.980988 C 1793.869629 273.776306 1801.625732 170.611603 1858.418457 110.408295 C 1888.354492 78.674377 1929.158447 62.538086 1979.450439 62.5448 C 2016.982422 62.55481 2045.470459 69.710999 2074.113281 86.34079 C 2089.296143 95.155701 2111.714355 117.776703 2121.108643 133.761292 C 2138.760254 163.795807 2146.579346 198.190918 2145.077637 239.198303 C 2142.840332 300.286285 2118.293213 351.705994 2076.334229 383.196686 C 2043.921387 407.52301 1998.182129 419.230194 1954.438965 414.396301 Z M 2015.887451 387.046814 C 2055.305176 374.004791 2076.921143 334.679199 2081.408447 267.846497 C 2086.461426 192.587799 2063.638916 130.004395 2020.947266 102.049988 C 2007.49292 93.240204 1999.900879 90.044189 1985.49707 87.126709 C 1955.567871 81.064514 1925.549072 90.171692 1905.301514 111.456696 C 1891.157959 126.324799 1880.476074 150.075623 1875.434814 177.864899 C 1872.468018 194.218201 1871.333252 235.491104 1873.363281 253.207397 C 1881.328613 322.722595 1913.01416 371.196899 1960.520508 386.544586 C 1978.925049 392.490509 1998.887451 392.671509 2015.887451 387.046814 Z M 2486.783691 415.066101 C 2460.07251 411.970215 2444.529053 408.01889 2427.299316 399.944702 C 2412.302979 392.917206 2401.33374 385.234192 2388.45752 372.739685 C 2382.411621 366.872803 2377.263184 362.325897 2377.016846 362.635406 C 2376.770508 362.945007 2375.848877 368.804596 2374.96875 375.656799 C 2372.575928 394.285889 2370.859619 400.96109 2367.440674 404.937012 L 2364.349609 408.531586 L 2319.233154 408.412415 C 2172.788086 408.025299 2138.809814 407.502991 2137.243164 405.615295 C 2134.562744 402.385498 2138.128906 400.685486 2149.664063 399.694214 C 2163.055176 398.543396 2166.570557 396.259003 2169.825928 386.592712 C 2174.222412 373.537994 2174.9375 348.442108 2174.520752 221.864899 L 2174.116943 99.198303 L 2171.145264 93.169189 C 2169.510742 89.853088 2166.510742 86.173096 2164.478516 84.991394 C 2159.902588 82.330383 2148.553711 79.864899 2140.881348 79.864899 C 2134.670898 79.864899 2131.531006 77.637085 2133.424072 74.573792 C 2134.390625 73.010193 2146.479248 72.691284 2207.548828 72.6185 C 2281.830078 72.530487 2285.590332 72.768982 2283.788818 77.463806 C 2283.228271 78.924286 2279.823975 79.67569 2270.895752 80.309387 C 2252.836914 81.591309 2247.647705 84.458679 2243.952148 95.198181 C 2241.306152 102.888 2241.23999 342.555298 2243.880127 356.531586 C 2246.290771 369.292206 2248.711426 373.79071 2255.635254 378.376801 C 2263.388184 383.512207 2270.103271 384.380798 2300.783691 384.216614 C 2328.520752 384.068298 2341.629639 382.166412 2351.199219 376.902008 C 2357.304443 373.543488 2364.525635 363.927704 2366.904053 355.989197 C 2368.313232 351.286285 2368.046143 350.439789 2361.618652 339.230103 C 2343.786865 308.1315 2335.614746 276.694397 2335.614746 239.198196 C 2335.614746 188.486694 2352.544434 143.051086 2383.52124 110.628204 C 2414.551514 78.148804 2453.805664 62.531586 2504.411621 62.531586 C 2593.196289 62.531586 2652.273438 109.597504 2667.518555 192.47699 C 2669.304199 202.183899 2669.600098 210.429382 2669.098633 236.477005 C 2668.432617 271.082397 2666.907227 280.565491 2658.045898 305.198212 C 2637.529785 362.227509 2592.287109 401.310913 2534.018066 412.340088 C 2523.126953 414.401611 2495.037354 416.022705 2486.783691 415.066101 Z M 2537.380371 388.343201 C 2550.839844 384.564209 2560.19873 378.794006 2571.681152 367.194794 C 2580.839355 357.943695 2583.664551 353.963989 2589.379395 342.263611 C 2597.34668 325.951996 2603.083008 304.834412 2605.46875 283.033203 C 2607.932129 260.519806 2606.594238 216.338318 2602.894531 198.055603 C 2592.804199 148.189819 2568.586914 111.947083 2534.118652 95.129211 C 2500.135986 78.548096 2460.545654 83.2547 2435.291992 106.878113 C 2417.075439 123.918793 2407.308594 143.774994 2400.702881 177.198181 C 2397.293701 194.447815 2396.559082 240.132507 2399.366943 260.266113 C 2408.508057 325.809204 2439.384521 371.207794 2485.207764 386.480103 C 2501.529053 391.9198 2522.033691 392.652008 2537.380371 388.343201 Z M 1313.010498 406.198212 C 1307.010742 400.560913 1235.084473 322.652313 1146.196045 225.509293 C 1120.572998 197.506714 1099.425049 174.7789 1099.200928 175.003204 C 1098.976563 175.227478 1099.449219 211.326599 1100.250977 255.223602 L 1101.70874 335.036285 L 1115.193848 351.638611 C 1132.309814 372.71109 1146.901123 388.233612 1154.523682 393.477997 C 1159.323242 396.780396 1162.25 397.706909 1169.524414 398.227386 C 1177.32373 398.7854 1178.666016 399.261688 1179.318848 401.702789 C 1179.760742 403.355591 1179.301758 405.111603 1178.212402 405.927002 C 1176.960449 406.864502 1153.233154 407.246307 1105.899658 407.090393 C 1067.152588 406.962799 1034.740723 406.78479 1033.873535 406.694885 C 1031.495361 406.448486 1030.343262 401.335388 1032.170166 399.134186 C 1033.298828 397.774109 1036.604004 397.196686 1043.280029 397.193207 C 1055.428467 397.183197 1061.842529 393.893707 1061.199219 387.993195 C 1060.907227 385.315704 1049.765869 370.65329 1023.73584 338.690308 L 986.688232 293.198212 L 936.212646 293.198212 L 885.737061 293.198212 L 884.75415 316.790192 C 883.498047 346.943207 884.5625 377.501709 887.114014 384.527405 C 891.10376 395.514496 898.260254 399.531006 915.011963 400.184509 C 924.699463 400.5625 925.92041 401.105804 925.222656 404.728394 C 924.785156 407.001099 921.649658 407.135803 868.486572 407.166107 C 816.733643 407.195099 812.026855 407.011597 809.88916 404.87439 C 806.480469 401.46701 808.715332 400.318695 820.593262 399.374298 C 834.511475 398.2677 840.379639 394.985504 844.87793 385.79129 C 848.19043 379.021301 848.419189 376.403015 858.985107 224.445801 C 864.89209 139.490723 870.242188 68.622406 870.874023 66.960693 C 872.16333 63.569092 877.260254 61.7854 881.783691 63.142609 C 884.118652 63.843292 986.689697 190.504883 1065.159912 289.587891 L 1069.164307 294.644196 L 1070.044922 274.254486 C 1070.529053 263.040192 1072.28418 211.928894 1073.944824 160.673889 L 1076.964355 67.48291 L 1080.148926 64.904297 C 1081.964844 63.433685 1084.618164 62.571411 1086.32373 62.8974 C 1092.539307 64.085602 1087.755127 59.051483 1194.829834 177.068909 C 1231.155273 217.106689 1269.855225 259.726715 1280.829834 271.779907 L 1300.783691 293.695007 L 1300.866699 253.113297 C 1300.911621 230.793304 1300.612061 187.031616 1300.199951 155.864899 L 1299.450684 99.198181 L 1296.117188 92.600891 C 1291.266846 83.000885 1287.907715 81.108582 1272.567139 79.334778 C 1260.887939 77.984406 1259.450684 77.528503 1259.450684 75.174896 C 1259.450684 71.076385 1265.493164 70.788879 1332.783936 71.685486 C 1366.517334 72.13501 1423.517334 72.612091 1459.450684 72.745697 C 1519.053711 72.967407 1526.100342 73.229797 1539.792969 75.737305 C 1556.806152 78.852997 1575.333252 85.347107 1583.971191 91.222595 C 1598.287598 100.96051 1610.106689 118.941589 1613.816406 136.627686 C 1617.258789 153.039917 1614.180908 178.433807 1606.400146 197.811707 C 1597.52002 219.928284 1582.536377 235.943893 1560.783936 246.570007 C 1541.348389 256.064209 1532.271973 257.864899 1503.852051 257.864899 C 1479.746582 257.864899 1476.160156 257.151215 1477.870361 252.694702 C 1478.681152 250.580902 1482.104248 249.799393 1495.635742 248.638794 C 1521.693604 246.403793 1545.282471 223.8918 1553.148926 193.751099 C 1556.043945 182.659302 1555.876709 156.268005 1552.837158 144.531616 C 1549.562256 131.884583 1542.901367 119.991394 1534.117188 111.105713 C 1524.729248 101.6091 1514.674561 96.410583 1500.197754 93.568481 C 1487.968262 91.167603 1462.497803 91.608582 1459.847656 94.267212 C 1458.449219 95.669891 1458.161865 121.883789 1458.349854 230.933807 C 1458.498291 317.024811 1459.087891 369.163086 1459.978516 374.976807 C 1462.744385 393.031494 1469.452148 399.506287 1484.021484 398.185211 C 1500.511475 396.689911 1509.075195 389.034088 1536.783936 351.015289 C 1545.583984 338.94101 1582.783936 288.542786 1619.450684 239.019394 C 1656.117188 189.495911 1699.617188 130.63031 1716.117188 108.206909 C 1732.617188 85.783508 1747.716797 66.253693 1749.672119 64.807495 C 1753.377441 62.066589 1758.958008 62.172302 1761.823486 65.037781 C 1763.536133 66.750305 1763.538086 66.773987 1772.563232 191.864899 C 1784.481201 357.049713 1785.093018 363.268799 1791.126465 380.531586 C 1793.778076 388.118988 1801.062744 395.461609 1806.788818 396.318298 C 1809.352783 396.701904 1815.050537 397.506897 1819.450684 398.106995 C 1826.17749 399.024597 1827.450684 399.619812 1827.450684 401.846893 C 1827.450684 407.480804 1823.848633 407.787506 1763.544434 407.28891 C 1717.309082 406.906586 1706.233154 406.472687 1705.305908 405.007507 C 1703.460449 402.091797 1704.646729 400.666412 1710.692383 398.536194 C 1714.206787 397.297913 1717.001709 395.257385 1718.003662 393.198212 C 1720.338867 388.398987 1716.766113 296.050415 1714.141113 293.361206 C 1712.641846 291.825287 1704.752197 291.716003 1666.020752 292.694489 L 1619.693604 293.864899 L 1585.184326 343.755615 C 1566.203857 371.195496 1550.849365 394.531189 1551.062744 395.612701 C 1551.707275 398.880005 1555.475342 400.364288 1564.599365 400.945313 C 1573.361328 401.503204 1575.64624 402.990295 1573.368408 406.652496 C 1572.436768 408.150391 1569.148682 408.407806 1557.158691 407.921387 C 1537.038818 407.105286 1429.892334 406.32431 1404.783936 406.810699 C 1356.440674 407.747406 1351.83667 407.327301 1353.819336 402.1604 C 1354.311279 400.878387 1357.820557 399.999512 1364.804443 399.40921 C 1377.364258 398.347412 1381.390625 396.537292 1384.585205 390.516388 C 1389.725098 380.828491 1390.117188 369.53479 1390.117188 231.198196 C 1390.117188 100.502899 1390.064209 97.761108 1387.450684 92.617615 C 1385.983887 89.731598 1383.244141 86.246582 1381.361816 84.873199 C 1374.000977 79.501892 1348.184814 78.226379 1341.078125 82.882813 C 1339.227539 84.095398 1336.604248 87.962402 1335.248779 91.476196 C 1332.438965 98.758911 1331.700684 124.100586 1329.079346 303.198212 C 1328.284912 357.464905 1327.280762 403.607605 1326.847656 405.73761 C 1326.070801 409.557007 1323.583252 412.008087 1320.57959 411.913391 C 1319.733887 411.886414 1316.327881 409.314911 1313.010742 406.198212 Z M 966.550049 269.16449 C 965.531494 266.108307 890.117676 174.6745 889.351563 175.566711 C 888.268066 176.828613 885.197998 267.711304 886.185059 269.308197 C 887.271729 271.066406 967.136475 270.923615 966.550049 269.16449 Z M 1713.88501 269.531494 C 1714.210449 268.981506 1713.371826 247.531494 1712.02124 221.864899 C 1710.670654 196.198181 1709.539551 173.548218 1709.508057 171.531494 C 1709.47583 169.514893 1708.936035 167.864899 1708.307129 167.864899 C 1707.108154 167.864899 1639.460938 264.548187 1638.004639 268.343292 C 1637.238281 270.340607 1640.487061 270.531494 1675.229004 270.531494 C 1696.164063 270.531494 1713.559326 270.081512 1713.88501 269.531494 Z"/>
    <g id="g5188">
        <path id="path4-3" fill="#ffffff" fill-rule="evenodd" stroke="none" d="M 27.267334 450.599213 L 450.443848 450.599213 L 450.443848 27.420441 L 27.267334 27.420441 Z"/>
        <path id="path4" fill="#ec6d2d" fill-rule="evenodd" stroke="none" d="M -0.134521 0 L 477.865479 0 L 477.865479 478 L -0.134521 478 Z M 27.267334 450.599213 L 450.443848 450.599213 L 450.443848 27.420441 L 27.267334 27.420441 Z"/>
        <path id="path6" fill="#e3b228" fill-rule="evenodd" stroke="none" d="M 427.327271 134.959595 L 427.189697 134.841583 L 427.172607 134.841583 C 424.282959 133.111877 419.879883 132.109375 416.931274 133.406708 C 398.060547 131.598328 380.035034 131.794891 360.94812 132.030792 L 359.611328 132.030792 C 350.057983 132.148804 340.150879 132.266785 330.263428 132.089813 L 250.256592 130.458344 C 230.449463 129.97168 210.631958 130.109436 190.833496 130.871307 C 175.913818 130.989319 161.40686 131.382263 146.644409 131.814819 C 131.272583 132.227814 94.553345 132.325775 72.616089 132.404541 C 66.417358 132.389252 60.21875 132.421936 54.020508 132.502533 C 51.425781 132.640015 48.28064 136.256897 48.22168 139.146362 C 48.20459 140.797485 49.14563 142.645172 51.917236 142.920319 C 53.981201 143.116821 67.249756 143.195282 91.368896 143.116821 L 115.999146 143.018311 C 122.544922 143.001099 125.591797 143.09671 127.00708 142.939819 L 127.184082 142.939819 C 145.288208 141.111786 163.470947 141.210022 181.044312 141.328033 L 182.400635 141.328033 C 193.782104 141.387024 205.556641 141.446014 217.390137 140.973938 C 219.84729 141.543915 222.442017 141.014069 224.938477 140.501984 L 225.312012 140.442993 C 226.432373 140.227081 227.592163 140.010498 228.692993 139.912628 C 231.385986 140.698822 234.472168 140.659485 237.715576 140.580902 C 240.860596 140.502411 244.045166 140.462921 246.954346 141.131378 L 246.971436 141.209839 L 247.463013 141.192627 L 247.480225 141.133636 C 250.035645 140.268799 252.355103 140.720673 254.831909 141.192627 C 256.088379 141.470062 257.362671 141.660492 258.645386 141.762573 C 281.50647 141.133545 306.7854 141.939575 338.334961 144.357239 L 353.254639 145.969025 L 353.254639 145.986145 L 353.411621 145.986145 C 366.680054 144.688934 380.381104 145.691162 393.629883 146.674194 C 393.741333 146.678131 393.852661 146.683899 393.963867 146.691406 C 403.929932 147.418701 413.345703 148.106537 422.702393 147.909973 L 422.761475 148.008575 L 423.31189 147.812073 L 423.294678 147.694092 L 428.248291 143.743134 L 428.265381 143.760345 L 428.481934 143.504883 L 428.464844 143.487671 C 430.122437 140.726501 429.649292 137.185913 427.324707 134.956879 Z"/>
        <path id="path8" fill="#006a32" fill-rule="evenodd" stroke="none" d="M 294.97644 304.907318 L 295.389404 304.651855 L 295.389404 303.669006 L 295.0354 272.533569 L 295.0354 272.455078 L 295.018188 272.376709 C 294.519043 267.274353 294.256836 262.151794 294.231934 257.025146 C 294.09436 250.872787 293.957031 244.484512 293.131226 238.823532 C 292.973633 230.764465 291.361938 222.096024 289.809082 213.742157 L 288.786987 208.061493 L 288.688354 207.511017 L 288.295532 207.118073 C 287.057007 205.87973 286.624634 204.287598 286.152832 202.479156 C 285.739868 200.946014 285.327271 199.393127 284.383667 197.899231 C 282.300049 194.086029 278.997681 190.390656 276.068726 187.127625 L 275.911865 186.970734 C 275.18457 185.968231 274.339233 185.457184 273.592285 184.96582 C 273.15979 184.690826 272.74707 184.434845 272.294922 184.041962 L 271.626587 183.472015 L 271.213623 183.570587 L 270.683105 183.138123 C 268.049072 181.034882 265.591919 180.229004 262.741699 179.285492 L 262.682739 179.26828 C 261.857178 178.088959 260.284546 177.911957 259.223022 177.892395 L 259.223022 177.125763 L 257.748657 176.889801 L 250.809814 175.848022 L 249.787598 175.690521 L 249.158691 176.535706 C 248.903198 176.86969 248.844116 176.9487 247.389526 176.417725 C 246.681763 176.138031 245.942505 175.946625 245.187866 175.847778 L 244.381958 175.769287 L 243.968994 176.162231 C 243.723267 175.979126 243.459839 175.821014 243.182739 175.690277 L 240.312744 174.825409 L 240.076782 176.162079 C 238.932007 176.119171 237.795166 176.369476 236.774414 176.889343 L 232.213989 176.889343 L 227.96814 176.906494 L 228.459595 178.51828 L 228.381104 178.596771 C 226.513672 178.124786 225.098389 179.265045 224.29248 179.913757 L 223.899536 180.24762 C 222.385864 180.503113 221.540649 181.132233 220.931274 181.58429 C 220.479248 181.918243 220.341553 182.036255 219.928833 182.056244 L 219.221069 182.134735 L 218.769043 182.685211 C 217.656128 183.592712 216.400879 184.310028 215.053955 184.808136 L 212.714844 185.849884 L 213.22583 186.34137 C 212.819336 186.518005 212.446899 186.764038 212.125 187.068634 L 209.86438 187.068634 L 209.86438 188.837677 L 209.608887 188.797546 L 208.35083 188.26709 C 208.25293 188.227081 207.427002 189.348175 207.427002 189.348175 C 206.051025 191.274536 204.262207 193.161499 202.375122 195.166412 C 200.173584 197.505585 197.873657 199.942902 196.143799 202.576874 L 195.613403 203.363068 L 195.947388 204.149323 C 195.534424 204.404816 194.473022 205.073181 194.276489 206.35083 C 193.595093 207.209137 193.178467 208.247314 193.077393 209.338531 C 193.037231 209.593994 192.998901 209.947906 192.919922 210.105225 C 192.202515 210.987457 191.758423 212.060089 191.642212 213.191162 C 191.52417 213.839874 191.46521 214.213318 191.190186 214.547485 L 190.069824 215.962799 L 190.561279 216.336273 C 190.227295 217.181458 190.227295 218.065948 190.207153 218.59668 C 190.207153 218.832672 190.207153 219.107635 190.167236 219.304291 L 189.439819 219.756256 L 189.596802 220.876648 C 189.911255 223.078171 189.614014 225.102768 189.341309 227.24527 C 188.96875 229.399307 188.856567 231.590332 189.007324 233.771118 C 188.162109 235.068527 188.358643 236.621323 188.49646 237.564835 C 188.55542 237.898804 188.61438 238.351028 188.594971 238.567261 L 187.474487 239.432205 L 188.280396 240.7491 C 188.889771 241.751602 188.398438 243.363403 187.946411 244.876953 C 187.513916 246.351181 187.00293 248.159546 187.533447 249.73201 C 187.026001 250.140182 186.75354 250.773239 186.806152 251.422379 C 186.806152 252.62146 186.707642 252.994934 186.64917 253.073593 L 185.823608 254.783722 L 185.705566 255.451996 L 187.199463 256.493774 C 187.068604 257.408081 187.088623 258.337708 187.258423 259.245636 C 187.435425 260.385712 187.474487 260.857422 187.140503 261.309479 L 186.196899 262.980347 L 187.12085 264.081024 L 187.12085 264.395508 C 187.080688 265.142456 186.983276 266.498779 187.946411 267.50116 C 187.963623 267.697662 188.005493 267.874634 188.064453 268.051636 L 186.373901 268.484131 L 187.474731 270.823181 L 187.356689 271.412903 C 187.199707 272.10083 186.885254 273.476746 187.592651 274.675812 C 187.062256 276.051697 187.39624 277.388367 187.609863 278.272888 C 187.668823 278.528381 187.767456 278.86261 187.786865 279.098389 C 186.174927 280.788879 186.961304 283.01001 187.393921 284.209106 C 186.646973 285.349182 186.823975 286.705414 186.980957 287.530945 L 184.818726 288.25824 L 187.020264 290.499054 C 186.876465 291.074097 186.968506 291.682678 187.275757 292.189514 C 187.53125 292.602478 187.865479 292.838135 188.199585 292.995361 L 187.53125 293.211945 L 187.609741 293.427856 L 187.609741 293.445068 L 188.396118 295.449982 L 188.355957 295.685974 C 188.183472 296.814697 188.428101 297.967712 189.043945 298.92923 C 188.817505 299.19931 188.692261 299.539917 188.690063 299.892395 L 187.825073 300.757263 L 188.650635 301.95636 C 189.299438 302.89978 189.063721 304.11853 188.591675 306.0448 C 188.15918 307.735229 187.62854 309.877747 188.608887 311.725464 L 187.390137 312.924438 L 188.92334 314.044861 C 188.89209 314.127258 188.852539 314.20636 188.80542 314.280823 C 188.412476 315.008118 187.70459 316.344788 188.589478 317.819 L 188.510986 317.641998 C 188.825439 318.329956 188.687988 319.489685 188.528076 320.68869 C 188.331787 322.438141 188.076294 324.560974 189.000244 326.664185 L 188.7052 328.767426 L 188.76416 328.511963 C 188.565186 329.195251 188.6427 329.929443 188.980103 330.556122 L 188.311768 330.870605 L 188.783813 332.325134 C 189.211792 334.09314 189.377319 335.914429 189.275269 337.730652 C 189.275269 341.465302 189.29248 345.730652 192.675903 348.973999 L 193.40332 349.661926 L 194.366455 349.366943 C 196.902222 348.619995 197.020142 346.103943 197.098755 344.747742 C 197.098755 344.452759 197.115967 344.177765 197.157715 343.961426 L 197.197876 343.587952 L 197.099365 343.214508 C 196.077271 339.774658 196.509644 335.273438 196.902832 331.302887 L 197.177856 328.275879 L 197.218018 327.803802 L 197.001953 327.371338 C 196.314087 325.995422 196.491089 324.619568 196.668091 323.027344 C 196.956421 321.468506 196.902832 319.865601 196.511108 318.32959 C 197.081055 311.056732 196.747192 302.407959 196.432617 294.820679 C 196.334717 291.597107 196.196655 288.550415 196.137695 285.719849 L 196.137695 285.562897 C 195.789551 281.845215 195.717285 278.106812 195.921631 274.378479 C 196.020142 271.017303 196.118164 267.557739 195.82312 264.373474 C 196.629028 260.737061 196.589722 257.415222 196.511108 253.896667 C 196.493896 252.304626 196.452026 250.653412 196.511108 248.943375 L 196.52832 248.51091 L 196.410278 248.294937 C 197.196533 247.331848 197.373535 246.349091 196.980225 245.405487 C 197.273804 244.182098 197.425537 242.929016 197.432251 241.670853 C 197.418457 240.806519 197.497559 239.943237 197.668213 239.095871 L 197.766724 238.682892 L 197.648682 238.269913 C 197.432739 237.50322 197.648682 236.618698 197.865234 235.675278 C 198.258789 234.43074 198.279297 233.098282 197.924194 231.842316 C 199.300293 229.110092 199.575439 225.768509 199.870239 222.505585 L 199.96875 221.385162 C 200.086792 220.677551 199.831299 220.009186 199.261108 219.419556 L 199.261108 219.321075 C 199.261108 217.886078 200.008057 216.72644 200.932007 215.252197 C 202.207031 213.499786 203.055176 211.473785 203.408813 209.335632 L 203.448853 208.922668 L 203.431763 208.824158 L 203.824707 208.470184 C 204.453613 207.959229 205.41687 207.133514 205.397217 205.836212 C 205.396484 205.601959 205.356567 205.369385 205.279175 205.148254 C 206.323486 204.143921 207.205444 202.983459 207.893677 201.708435 C 208.876465 200.076965 209.584106 198.877899 211.510498 198.327606 L 212.454102 198.052643 L 212.709595 197.089539 C 212.984497 196.028046 213.908569 195.418671 215.402588 194.494904 C 216.64856 193.80835 217.76062 192.902771 218.685303 191.821594 C 219.923706 191.920105 220.690308 191.585602 221.122681 191.09433 C 222.472656 190.703552 223.716064 190.011322 224.759277 189.069733 C 226.351563 187.792145 226.862549 187.516937 227.963379 187.988647 L 229.064209 188.499603 L 229.752197 187.811554 L 229.889648 187.771515 C 230.381104 187.634033 231.265625 187.398041 231.776733 186.592102 C 232.196777 186.493164 232.610352 186.368378 233.015137 186.218628 C 233.919312 185.884674 234.13562 185.864655 234.43042 186.022156 C 234.917847 186.323975 235.508911 186.409515 236.06189 186.258148 L 236.120972 186.39563 L 237.379028 186.238129 L 239.049927 186.022156 C 244.042725 185.373444 248.36731 184.82309 252.259399 186.906677 L 253.655029 187.673279 L 254.480713 186.415283 L 255.011108 186.98526 C 256.01355 188.105591 257.763062 190.031952 260.298828 189.599457 C 260.849365 190.071442 261.478271 190.464325 262.028687 190.77887 L 262.755981 191.230835 L 262.755981 191.309326 L 263.089966 191.7612 C 263.876221 192.822632 265.546997 193.314087 266.903442 193.373077 C 269.832275 196.459106 272.800537 200.665558 272.800537 202.513153 L 272.800537 204.24295 L 274.078247 204.24295 L 274.118286 204.341431 C 274.590332 206.621613 275.258423 209.452057 277.027588 211.299774 C 276.516602 212.459503 276.968628 213.874725 277.14563 214.464447 L 277.322632 215.093384 L 276.890137 216.390717 L 278.030273 217.550446 L 278.285645 217.687958 C 278.226563 218.886932 278.75769 219.987701 279.130981 220.773956 C 279.241089 220.991333 279.339478 221.214386 279.425903 221.442261 L 279.151001 222.071198 C 277.598022 225.039307 279.681396 226.690445 280.684204 227.476715 C 280.815918 227.572601 280.940796 227.677658 281.057739 227.791183 C 280.271362 228.38089 280.310791 229.009933 280.173218 230.071274 L 280.291138 231.368668 L 280.822144 232.233521 L 280.862305 232.233521 L 280.921265 232.410522 C 280.980225 232.666 281.117676 233.019882 281.334229 233.412933 L 280.744507 233.982895 L 280.331543 235.535782 L 281.196533 236.793762 L 281.864868 237.127731 C 281.877686 237.738068 282.032349 238.33696 282.316772 238.877106 L 282.415283 239.132584 L 282.258423 239.899185 C 281.688477 242.749405 280.960938 246.425034 282.730469 249.373489 L 282.572876 249.530457 C 281.747314 250.611542 281.963623 251.869537 282.10144 252.793381 C 282.141602 253.088455 282.238892 253.559998 282.179932 253.717224 L 281.747437 255.505936 C 281.747437 255.584412 282.317383 255.741913 282.828613 255.83989 C 282.769531 256.036377 282.69104 256.193878 282.651611 256.390381 L 282.278076 258.43454 L 282.966187 258.43454 C 282.848145 259.142242 282.828613 259.790833 282.808594 260.400208 C 282.791382 261.441986 282.749512 262.11026 282.376099 262.660645 L 282.238647 262.896606 L 282.160156 263.1716 C 281.64917 265.058533 282.337158 266.827637 282.887451 268.242889 L 283.202026 269.009491 C 282.81604 269.407532 282.616089 269.950012 282.651489 270.503387 C 282.651489 270.660889 282.72998 270.778259 282.769531 270.916382 L 282.376465 271.309326 L 282.710449 272.311768 C 282.906982 272.901459 283.241455 273.255249 283.673584 273.471405 L 283.378662 273.549896 C 283.31958 273.567108 283.31958 274.906219 283.31958 274.906219 L 283.31958 275.378174 L 282.238525 275.692657 L 282.78894 276.832764 C 282.39856 277.468689 282.298584 278.24115 282.514038 278.955566 L 281.76709 280.292236 C 281.807129 280.252136 281.885132 281.07843 282.553345 281.393005 C 281.865356 283.771393 283.595215 285.501099 284.597656 286.542847 C 284.92395 286.84668 285.226318 287.175293 285.501953 287.525696 L 284.636963 287.525696 L 285.285645 289.766541 L 285.302856 289.825531 L 284.850952 290.297485 L 283.435547 291.005035 L 283.887451 292.931396 L 283.75 293.383362 C 283.416016 294.405457 283.671509 295.07373 283.966553 295.486603 C 284.025635 295.585114 284.104004 295.624023 284.182495 295.682983 C 283.495605 296.313873 283.062378 297.173462 282.963745 298.10083 L 282.806274 299.732208 L 284.123291 299.92868 C 284.009521 300.26474 283.911133 300.605896 283.828369 300.950867 C 283.651367 301.56015 283.513794 302.090942 283.218872 302.503662 L 283.236206 302.520874 L 283.118164 302.717346 L 285.437622 304.014679 C 285.153687 304.551941 284.929443 305.118835 284.769287 305.705139 L 284.533325 306.41275 L 284.356323 306.41275 L 282.410278 306.429871 L 282.528198 308.670715 C 282.633545 309.062805 282.699341 309.464508 282.724731 309.86969 C 282.771606 310.333313 282.850464 310.79303 282.960693 311.245697 L 282.960693 313.486511 C 282.960693 313.781494 282.960693 314.253113 283.059204 314.744507 L 282.803711 314.882019 L 282.980713 316.1203 C 283.079346 316.749268 283.020874 317.358643 282.980713 317.987671 C 282.963623 318.361145 282.921753 318.754211 282.921753 319.166992 L 281.349243 319.992615 L 283.275635 322.095795 L 283.258423 322.174286 C 282.959473 322.80899 282.792236 323.497742 282.766968 324.198883 L 281.390991 324.198883 L 283.730225 327.049011 C 283.926636 327.304474 284.103638 327.933533 284.241089 328.405334 L 284.281128 328.582306 C 283.317993 329.486481 283.160767 330.862488 283.101807 331.609436 C 283.061646 331.943298 283.023315 332.434937 282.944336 332.552856 L 282.984375 332.512726 L 283.574097 333.299011 C 283.199341 333.577728 282.896118 333.941589 282.689453 334.360413 C 282.474854 334.875732 282.40686 335.440369 282.493042 335.991882 L 280.232544 335.991882 L 282.099854 337.859253 L 280.350464 338.429199 L 281.804932 339.647766 L 281.804932 344.286682 C 281.804932 345.131958 282.218018 345.839539 282.905884 346.193359 C 282.948608 346.215485 282.995239 346.229126 283.043213 346.233459 C 283.866943 346.738831 284.863037 346.881042 285.795288 346.626343 L 285.795288 348.552612 L 288.036133 347.884338 C 289.369507 347.426788 290.799194 347.325073 292.183838 347.589355 L 294.031494 347.98233 L 294.267578 346.11496 C 295.171753 339.176331 294.994873 332.473572 294.818115 325.986969 C 294.661133 319.677368 294.503662 313.662537 295.30957 307.804993 C 295.664063 306.837006 295.540283 305.758362 294.975586 304.895874 Z"/>
        <path id="path10" fill="#295493" fill-rule="evenodd" stroke="none" d="M 162.212891 304.907318 L 162.625854 304.651855 L 162.271851 272.533569 L 162.271851 272.455078 L 162.254639 272.376709 C 161.755615 267.274353 161.493286 262.151794 161.468384 257.025146 C 161.330933 250.872787 161.193481 244.484512 160.3479 238.823532 C 160.210449 230.764465 158.598511 222.096024 157.045532 213.742157 L 156.023438 208.061493 L 155.924927 207.511017 L 155.531982 207.118073 C 154.273926 205.87973 153.861084 204.287598 153.389404 202.479156 C 152.976318 200.946014 152.563721 199.393127 151.600464 197.899231 C 149.536621 194.086029 146.214478 190.390656 143.285645 187.127625 L 143.148071 186.970734 C 142.420776 185.968231 141.555786 185.457184 140.808838 184.96582 C 140.376465 184.690826 139.963623 184.434845 139.511597 184.041962 L 138.84314 183.472015 L 138.430176 183.570587 L 137.899658 183.138123 C 135.265747 181.034882 132.808594 180.229004 129.958252 179.285492 L 129.899292 179.26828 C 129.07373 178.088959 127.520752 177.911957 126.439697 177.892395 L 126.439697 177.125763 L 124.965332 176.889801 L 118.026489 175.848022 L 117.004272 175.690521 L 116.375244 176.535706 C 116.119751 176.86969 116.060791 176.9487 114.606201 176.417725 C 113.937866 176.181732 113.230103 175.92627 112.424194 175.847778 L 111.598633 175.769287 L 111.205688 176.162231 C 110.952881 175.979401 110.682861 175.821381 110.39978 175.690277 L 107.529785 174.825409 L 107.293701 176.162079 C 106.148926 176.117401 105.011597 176.367828 103.991455 176.889343 L 99.43103 176.889343 L 95.165405 176.906494 L 95.676392 178.51828 L 95.5979 178.596771 C 93.730469 178.124786 92.315186 179.265045 91.528931 179.913757 C 91.391479 180.031738 91.233887 180.188629 91.115845 180.24762 C 90.028198 180.431183 89.005981 180.891449 88.147705 181.58429 C 87.695679 181.918243 87.557983 182.036255 87.145142 182.056244 L 86.4375 182.134735 L 85.985474 182.685211 C 84.872559 183.592712 83.61731 184.310028 82.270264 184.808136 L 79.931152 185.849884 L 80.442139 186.34137 C 80.032104 186.522186 79.653809 186.767792 79.321655 187.068634 L 77.080688 187.068634 L 77.080688 188.837677 C 76.993896 188.83844 76.907715 188.824921 76.825195 188.797546 L 75.547607 188.26709 C 75.208496 188.594238 74.905396 188.956635 74.643311 189.348175 C 73.267334 191.274536 71.478638 193.161499 69.591553 195.166412 C 67.389893 197.505585 65.089966 199.942902 63.360229 202.576874 L 62.829712 203.363068 L 63.183716 204.149323 C 62.770752 204.404816 61.689819 205.073181 61.512817 206.35083 C 60.667603 207.274689 60.471069 208.513 60.333496 209.338531 C 60.300415 209.597687 60.248047 209.853943 60.176514 210.105225 C 59.475952 210.997437 59.033936 212.06488 58.898804 213.191162 C 58.780762 213.839874 58.721802 214.213318 58.446777 214.547485 L 57.326416 215.962799 L 57.83728 216.336273 C 57.483398 217.181458 57.483398 218.065948 57.483398 218.59668 C 57.480957 218.833008 57.467529 219.069183 57.443237 219.304291 L 56.696289 219.756256 L 56.853271 220.876648 C 57.167725 223.078171 56.893311 225.102768 56.597778 227.24527 C 56.234985 229.400452 56.122925 231.59024 56.263794 233.771118 C 55.418579 235.068527 55.615112 236.621323 55.772217 237.564835 C 55.831299 237.898804 55.890259 238.351028 55.87085 238.567261 L 54.750366 239.432205 L 55.536621 240.7491 C 56.145996 241.751602 55.654663 243.363403 55.202637 244.876953 C 54.789673 246.351181 54.278809 248.159546 54.809814 249.73201 C 54.291382 250.130569 54.022217 250.773422 54.102173 251.422379 C 54.102173 252.62146 53.984131 252.994934 53.925171 253.073593 L 53.099609 254.783722 L 52.962036 255.451996 L 54.456055 256.493774 C 54.340942 257.409668 54.367432 258.337769 54.534546 259.245636 C 54.711548 260.385712 54.750366 260.857422 54.416504 261.309479 L 53.473022 262.980347 L 54.416504 264.081024 L 54.399292 264.395508 C 54.359131 265.142456 54.300781 266.498779 55.224976 267.50116 C 55.242065 267.697662 55.283936 267.874634 55.342896 268.051636 L 53.652466 268.484131 L 54.753174 270.823181 L 54.635254 271.412903 C 54.458252 272.10083 54.143677 273.476746 54.851074 274.675812 C 54.488525 275.848328 54.494507 277.103882 54.868286 278.272888 C 54.927368 278.528381 55.025879 278.86261 55.045288 279.098389 C 53.453125 280.788879 54.219727 283.01001 54.652344 284.209106 C 53.905396 285.349182 54.082397 286.705414 54.23938 287.530945 L 52.077026 288.25824 L 54.29834 290.499054 C 54.154419 291.074097 54.24646 291.682678 54.553833 292.189514 C 54.769043 292.548889 55.092407 292.830963 55.477661 292.995361 L 54.789673 293.211945 L 54.888184 293.427856 L 54.888184 293.445068 L 55.674438 295.449982 L 55.657227 295.685974 C 55.487915 296.812073 55.724854 297.961792 56.325684 298.92923 C 56.107178 299.203857 55.983032 299.541656 55.97168 299.892395 L 55.106812 300.757263 L 55.952026 301.95636 C 56.600586 302.89978 56.344971 304.11853 55.873535 306.0448 C 55.44104 307.735229 54.910278 309.877747 55.913574 311.725464 L 54.694946 312.924438 L 56.228149 314.044861 L 56.110229 314.280823 C 55.717163 315.008118 55.009399 316.344788 55.913696 317.819 L 55.815186 317.641998 C 56.129639 318.329956 56.011597 319.489685 55.855225 320.68869 C 55.446167 322.685242 55.609741 324.756683 56.327271 326.664185 L 56.012817 328.767426 L 56.071777 328.511963 C 55.886597 329.19458 55.956421 329.921326 56.268188 330.556122 L 55.599854 330.870605 L 56.072021 332.325134 C 56.506958 334.092102 56.679077 335.913483 56.582886 337.730652 C 56.600098 341.465302 56.600098 345.730652 60.003174 348.973999 L 60.730469 349.661926 L 61.693726 349.366943 C 64.229492 348.619995 64.347412 346.103943 64.426025 344.747742 C 64.426025 344.452759 64.426025 344.177765 64.466187 343.961426 L 64.506226 343.587952 L 64.407715 343.214508 C 63.385498 339.774658 63.817993 335.273438 64.191772 331.302887 C 64.290283 330.221741 64.388306 329.238953 64.447266 328.275879 L 64.487305 327.803802 L 64.271362 327.371338 C 63.583374 325.995422 63.760376 324.619568 63.937378 323.027344 C 64.235352 321.469177 64.181519 319.864227 63.779907 318.32959 C 64.349854 311.056732 64.015869 302.407959 63.701416 294.820679 C 63.583496 291.597107 63.445923 288.550415 63.406494 285.719849 L 63.406494 285.562897 C 62.973999 281.946167 63.091919 278.11319 63.189941 274.378479 C 63.288452 271.017303 63.386353 267.557739 63.091309 264.373474 C 63.877686 260.737061 63.838257 257.415222 63.779419 253.896667 C 63.762207 252.304626 63.720459 250.653412 63.779419 248.943375 L 63.796509 248.51091 L 63.678589 248.294937 C 64.44519 247.331848 64.641724 246.349091 64.229004 245.405487 C 64.602539 244.088501 64.64209 242.79126 64.68103 241.670853 C 64.721069 240.766663 64.73999 239.90181 64.936523 239.095871 L 65.035034 238.682892 L 64.916992 238.269913 C 64.772583 237.401825 64.839966 236.511719 65.113525 235.675278 C 65.525269 234.434677 65.552612 233.098633 65.192017 231.842316 C 66.54834 229.110092 66.84314 225.768509 67.118408 222.505585 L 67.216919 221.385162 C 67.317749 220.657379 67.061646 219.925629 66.528931 219.419556 L 66.528931 219.321075 C 66.528931 217.886078 67.256226 216.72644 68.199829 215.252197 C 69.476196 213.502655 70.318481 211.474731 70.65686 209.335632 L 70.715942 208.922668 L 70.675903 208.824158 L 71.068726 208.470184 C 71.697754 207.959229 72.661011 207.133514 72.641357 205.836212 C 72.630737 205.602936 72.591064 205.371826 72.523315 205.148254 C 73.742065 204.067169 74.46936 202.828857 75.137817 201.708435 C 76.100952 200.076965 76.808594 198.877899 78.754639 198.327606 L 79.698242 198.052643 L 79.953735 197.089539 C 80.228638 196.028046 81.172363 195.418671 82.666382 194.494904 C 83.909546 193.812622 85.015869 192.906281 85.929443 191.821594 C 87.167847 191.920105 87.934448 191.585602 88.386475 191.09433 C 89.73645 190.703552 90.979858 190.011322 92.023071 189.069733 C 93.615356 187.792145 94.126343 187.516937 95.227173 187.988647 L 96.328003 188.499603 L 97.015991 187.811554 C 97.070068 187.805542 97.123047 187.792053 97.173462 187.771515 C 97.664917 187.634033 98.510132 187.398041 99.040894 186.592102 C 99.512939 186.493622 99.945068 186.336639 100.29895 186.218628 C 101.183472 185.884674 101.39978 185.864655 101.69458 186.022156 C 102.182007 186.323975 102.773071 186.409515 103.32605 186.258148 L 103.366211 186.39563 L 104.643921 186.238129 L 106.334473 186.022156 C 111.307617 185.373444 115.63208 184.82309 119.524292 186.906677 L 120.919922 187.673279 L 121.745483 186.415283 C 121.926636 186.595337 122.097168 186.785614 122.25647 186.98526 C 123.258911 188.105591 125.008423 190.031952 127.563843 189.599457 C 128.11438 190.071442 128.743286 190.464325 129.293701 190.77887 L 130.020996 191.230835 L 130.020996 191.309326 L 130.375 191.7612 C 131.161255 192.822632 132.832153 193.314087 134.168823 193.373077 C 137.097656 196.459106 140.065918 200.665558 140.065918 202.513153 L 140.065918 204.24295 L 141.363281 204.24295 L 141.380493 204.341431 C 141.871948 206.621613 142.540161 209.452057 144.289673 211.299774 C 143.798096 212.459503 144.230591 213.874725 144.407593 214.464447 L 144.584717 215.093384 L 144.152222 216.390717 L 145.292236 217.550446 L 145.547729 217.687958 C 145.48877 218.886932 146.019775 219.987701 146.393066 220.773956 L 146.70752 221.442261 L 146.412476 222.071198 C 144.859619 225.039307 146.943604 226.690445 147.945801 227.476715 L 148.319214 227.791183 C 147.532959 228.38089 147.572266 229.009933 147.415161 230.071274 L 147.55249 231.368668 L 148.083008 232.233521 L 148.123169 232.233521 L 148.182129 232.410522 C 148.26062 232.666 148.378662 233.019882 148.595093 233.412933 L 148.005371 233.982895 L 147.592407 235.535782 L 148.457275 236.793762 L 149.18457 237.068741 C 149.16748 237.776352 149.459595 238.385635 149.636597 238.8181 L 149.735107 239.073578 L 149.577515 239.840195 C 149.007568 242.690308 148.280151 246.366043 150.049561 249.314484 L 149.912109 249.471466 C 149.086548 250.552551 149.302734 251.810532 149.460205 252.73439 C 149.500244 253.029373 149.578125 253.500992 149.538574 253.658234 L 149.08667 255.44693 C 149.08667 255.525421 149.656616 255.682922 150.167847 255.780899 C 150.108765 255.977386 150.030273 256.134888 149.990845 256.33136 L 149.61731 258.37561 L 150.324951 258.37561 C 150.206909 259.083252 150.1875 259.731873 150.167969 260.341248 C 150.150879 261.382996 150.109009 262.05127 149.735596 262.601746 L 149.598145 262.837708 L 149.519653 263.11322 C 149.008667 265.000244 149.696655 266.769287 150.266602 268.184509 L 150.561523 268.951111 C 150.181763 269.352966 149.98291 269.892792 150.011108 270.445007 C 150.011108 270.60199 150.0896 270.719971 150.109619 270.857971 L 149.736084 271.250916 L 150.070068 272.253357 C 150.24707 272.843079 150.601074 273.196869 151.033325 273.413116 L 150.738281 273.491577 C 150.679321 273.50882 150.679321 274.8479 150.679321 274.8479 L 150.679321 275.319885 L 149.578491 275.594849 L 150.129028 276.734863 C 149.738525 277.37088 149.638428 278.143372 149.854004 278.857788 L 149.107056 280.194336 C 149.124268 280.154297 149.244507 280.980713 149.912964 281.295105 C 149.224976 283.673523 150.935181 285.40329 151.957275 286.445129 C 152.288818 286.743622 152.591553 287.072693 152.86145 287.427887 L 151.996582 287.427887 L 152.645386 289.668732 L 152.662476 289.727722 C 152.497192 289.870361 152.345947 290.028381 152.210571 290.199707 L 150.775635 290.907318 L 151.227661 292.833679 L 151.090088 293.285522 C 150.756104 294.307739 151.031128 294.976013 151.306152 295.388794 C 151.365112 295.487305 151.443481 295.526306 151.521973 295.585266 C 150.827637 296.210388 150.392822 297.073059 150.303345 298.003021 L 150.146362 299.634491 L 151.48291 299.830963 C 151.36499 300.184937 151.246948 300.518921 151.168457 300.853058 C 150.991455 301.462433 150.854004 301.993134 150.578735 302.405853 L 150.595947 302.423065 L 150.477905 302.619568 L 152.797485 303.916809 C 152.483032 304.526154 152.286499 305.135529 152.12915 305.607239 C 152.077271 305.851257 151.998047 306.088654 151.893066 306.31488 L 151.716187 306.31488 L 149.770142 306.332092 L 149.888062 308.572906 C 149.993408 308.964996 150.059204 309.366699 150.084595 309.771912 C 150.124146 310.235138 150.196289 310.694885 150.300537 311.147888 L 150.300537 313.388611 C 150.300537 313.683716 150.300537 314.155243 150.399048 314.646729 L 150.123535 314.784119 L 150.300537 316.022522 C 150.379028 316.651489 150.340698 317.260834 150.300537 317.889771 C 150.283325 318.263245 150.241577 318.656403 150.241577 319.069214 L 148.669067 319.894714 L 150.595459 321.997986 C 150.272217 322.653748 150.091187 323.370544 150.064453 324.101166 L 148.688477 324.101166 L 151.027588 326.951355 C 151.224121 327.206848 151.401123 327.835876 151.538574 328.307617 L 151.578613 328.484589 C 150.635132 329.388855 150.477783 330.764771 150.399292 331.511719 C 150.359131 331.845642 150.320801 332.337219 150.22229 332.4552 L 150.262329 332.4151 L 150.852173 333.201294 C 150.477295 333.480103 150.174194 333.843872 149.967529 334.262787 C 149.743286 334.775513 149.674927 335.342896 149.771118 335.894257 L 147.510498 335.894257 L 149.377808 337.761536 L 147.628418 338.331482 L 149.083008 339.550232 L 149.083008 344.189026 C 149.083008 345.034302 149.495972 345.741821 150.164185 346.095642 L 150.301636 346.135773 C 151.125366 346.641113 152.12146 346.783417 153.053589 346.528748 L 153.053589 348.455017 L 155.274902 347.786713 C 156.614868 347.328369 158.051025 347.226624 159.442139 347.49173 L 161.289917 347.884705 L 161.525879 346.017334 C 162.430176 339.078674 162.253296 332.375916 162.076416 325.889343 C 161.899414 319.579712 161.742432 313.564819 162.548462 307.707367 C 163.079346 306.527954 162.548462 305.466522 162.214478 304.896484 Z"/>
        <path id="path12" fill="#ec6d2d" fill-rule="evenodd" stroke="none" d="M 425.42041 307.285736 L 425.833496 307.010254 L 425.833496 306.04715 L 425.479492 274.911621 L 425.479492 274.69574 C 424.962402 269.601135 424.693481 264.484467 424.673462 259.3638 C 424.536011 253.211426 424.39856 246.823151 423.572632 241.201492 C 423.415161 233.10318 421.803589 224.454407 420.270386 216.080872 L 419.228516 210.380554 L 419.150024 209.869598 L 418.75708 209.456604 C 417.634888 208.133606 416.894165 206.529938 416.61438 204.81778 C 416.201416 203.284576 415.788818 201.712097 414.845337 200.218231 C 412.761597 196.424591 409.459351 192.709534 406.530396 189.446594 L 406.372803 189.269623 C 405.733154 188.466125 404.945923 187.792236 404.053345 187.284332 C 403.62085 186.989349 403.208008 186.753357 402.755859 186.360413 L 402.087524 185.790527 L 401.674561 185.888428 L 401.163574 185.455963 C 398.792114 183.667694 396.094604 182.359009 393.222168 181.603333 L 393.163208 181.586212 C 392.337524 180.406799 390.765015 180.229889 389.703613 180.190643 L 389.703613 179.443695 L 388.229248 179.207703 L 381.290283 178.185547 L 380.268188 178.028564 L 379.658813 178.854156 C 379.40332 179.20816 379.34436 179.267151 377.869995 178.755676 C 377.20166 178.519684 376.474365 178.24472 375.68811 178.185699 L 374.862427 178.107208 L 374.469482 178.500183 C 374.221313 178.310272 373.950684 178.151703 373.663574 178.028198 L 370.793579 177.163269 L 370.557617 178.499908 C 369.413696 178.46637 368.279297 178.716156 367.255371 179.227203 L 362.694824 179.227203 L 358.448975 179.244415 L 358.959961 180.875885 L 358.88147 180.954376 C 357.014038 180.4823 355.578979 181.62265 354.792725 182.271271 L 354.39978 182.585754 C 353.308838 182.770599 352.2854 183.238281 351.431641 183.942047 C 350.999146 184.27594 350.861572 184.374542 350.429077 184.414032 L 349.721436 184.473022 L 349.25 185.042999 C 348.620972 185.809509 346.615845 186.674438 345.554443 187.165833 L 343.21521 188.187927 L 343.726196 188.698883 C 343.320435 188.868073 342.947876 189.107666 342.625366 189.406494 L 340.364868 189.406494 L 340.364868 191.19519 C 340.266357 191.19519 340.168457 191.17804 340.128784 191.1362 L 338.851196 190.625244 C 338.506348 190.945221 338.196655 191.301025 337.927246 191.686646 C 336.382324 193.742554 334.694092 195.686829 332.875366 197.504883 C 330.673828 199.863617 328.393677 202.281372 326.644165 204.89566 L 326.113159 205.681946 L 326.467163 206.487793 C 326.054077 206.743286 324.99292 207.411652 324.796387 208.689301 C 324.11438 209.553009 323.703979 210.59967 323.616821 211.696655 C 323.585449 211.957825 323.526123 212.214874 323.439819 212.463348 C 322.726929 213.340698 322.283203 214.405701 322.162109 215.529633 C 322.064209 216.197998 321.985107 216.551788 321.710205 216.905609 L 320.589722 218.301239 L 321.081177 218.674713 C 320.747192 219.519836 320.747192 220.404419 320.727173 220.93515 C 320.727173 221.171112 320.727173 221.465576 320.687134 221.642761 L 319.959839 222.094711 L 320.116821 223.234787 C 320.450684 225.396957 320.156738 227.441223 319.861328 229.583817 C 319.487793 231.737686 319.37561 233.928787 319.527344 236.109573 C 318.682129 237.406982 318.878662 238.940125 319.016357 239.903305 C 319.056396 240.237259 319.134277 240.689484 319.114868 240.886139 L 317.994507 241.77066 L 318.800293 243.067886 C 319.40979 244.089981 318.918335 245.682205 318.466309 247.235092 C 318.053345 248.68956 317.522827 250.498016 318.053345 252.050812 C 317.935303 252.168808 317.778442 252.30629 317.6604 252.463867 C 317.405029 252.838486 317.287109 253.289825 317.326416 253.74144 C 317.326416 254.96019 317.208374 255.313995 317.149414 255.412323 L 316.343506 257.122375 L 316.206055 257.790649 L 317.699951 258.832397 C 317.585571 259.748383 317.611938 260.676422 317.778442 261.58429 C 317.955444 262.724426 317.994507 263.196045 317.660522 263.648193 L 316.736572 265.319 L 317.660522 266.419739 L 317.660522 266.714722 C 317.620361 267.46167 317.54248 268.837585 318.486084 269.840088 C 318.503296 270.03656 318.545166 270.232971 318.604126 270.370422 L 316.913574 270.802917 L 318.014404 273.161652 L 317.896362 273.731628 C 317.71936 274.439209 317.424316 275.795532 318.112305 277.014282 C 317.60144 278.370514 317.935303 279.726807 318.152344 280.611328 C 318.230835 280.866821 318.309326 281.200958 318.329346 281.436859 C 316.737183 283.107666 317.503784 285.348511 317.936401 286.527832 C 317.189575 287.667908 317.366577 289.024109 317.523438 289.849731 L 315.380859 290.59668 L 317.582397 292.837433 C 317.450439 293.406616 317.54187 294.004608 317.837891 294.508301 C 318.052002 294.8685 318.375854 295.150879 318.761841 295.314148 L 318.093506 295.530151 L 318.171997 295.766113 L 318.958252 297.790649 L 318.94104 298.007202 C 318.771729 299.133301 319.008667 300.28302 319.609497 301.250488 C 319.386963 301.530426 319.262573 301.875763 319.255493 302.233215 L 318.390503 303.078491 L 319.216187 304.29718 C 319.884399 305.240662 319.62915 306.459351 319.137695 308.38562 C 318.724609 310.056488 318.213867 312.218567 319.196655 314.066284 L 317.978027 315.285034 L 319.491577 316.385742 L 319.373535 316.621765 C 318.980591 317.329346 318.272705 318.685608 319.177002 320.159821 L 319.098511 319.982849 C 319.413086 320.670776 319.275513 321.810852 319.115845 323.009827 C 318.919312 324.778992 318.663818 326.901794 319.587769 329.005066 L 319.292725 331.12793 L 319.351807 330.832947 C 319.148438 331.5159 319.226196 332.251831 319.567749 332.877197 L 318.879761 333.17218 L 319.351685 334.646423 C 319.786865 336.406677 319.958984 338.221619 319.862671 340.032257 C 319.879883 343.786621 319.879883 348.052002 323.263306 351.275574 L 323.990601 351.963623 L 324.973511 351.68866 C 327.489624 350.922028 327.627197 348.406067 327.705811 347.049805 C 327.707275 346.793823 327.720703 346.537994 327.745972 346.283203 L 327.786011 345.890259 L 327.6875 345.536255 C 326.665283 342.096436 327.097778 337.595215 327.471558 333.60498 L 327.74646 330.577881 L 327.786621 330.105896 L 327.570068 329.692932 C 326.88208 328.297302 327.059082 326.921387 327.236084 325.348816 C 327.52771 323.789307 327.467163 322.184235 327.059082 320.651001 C 327.629028 313.358582 327.295166 304.729462 327.000122 297.122528 C 326.863159 294.096741 326.758301 291.069458 326.685669 288.041382 L 326.685669 287.86438 C 326.33728 284.146698 326.264893 280.408386 326.469116 276.679962 C 326.567627 273.318787 326.665649 269.878967 326.370605 266.694702 C 327.176636 263.058228 327.117554 259.736328 327.058594 256.198242 C 327.029175 254.547211 327.029175 252.895813 327.058594 251.244873 L 327.075806 250.812393 L 326.957764 250.59642 C 327.744019 249.652908 327.940552 248.670059 327.527832 247.726639 C 327.831177 246.498367 327.983032 245.237488 327.979614 243.972244 C 327.974731 243.114822 328.053833 242.258987 328.215698 241.416946 L 328.314209 240.984467 L 328.196289 240.571487 C 328.069214 239.701492 328.143066 238.813904 328.412109 237.976852 C 328.805786 236.732407 328.826294 235.399948 328.471191 234.14389 C 329.827515 231.431335 330.122437 228.070175 330.417236 224.807251 L 330.495728 223.686844 C 330.603271 222.958344 330.346069 222.223541 329.807739 221.721222 L 329.807739 221.62265 C 329.807739 220.168182 330.554688 219.008423 331.478516 217.53421 C 332.769409 215.79068 333.619141 213.760773 333.955322 211.617737 L 334.014282 211.204651 L 333.974121 211.126251 C 334.100342 211.002838 334.231323 210.884766 334.367188 210.772186 C 335.015869 210.221741 335.959473 209.415955 335.939697 208.098969 C 335.940674 207.870941 335.900757 207.644562 335.821655 207.430695 C 337.040527 206.329956 337.767822 205.111206 338.455811 203.990784 C 339.438599 202.339752 340.14624 201.160339 342.072632 200.609955 L 343.016235 200.314972 L 343.271729 199.37146 C 343.546631 198.310028 344.490356 197.681 345.984253 196.757141 C 347.222656 196.076019 348.328125 195.177094 349.247437 194.103607 C 350.505493 194.201569 351.271973 193.867615 351.704468 193.376312 C 353.058228 192.980743 354.307129 192.289215 355.360718 191.351715 C 356.93335 190.054413 357.463989 189.779266 358.564819 190.27063 L 359.645874 190.781586 L 360.333984 190.073883 C 360.388428 190.069794 360.44165 190.056244 360.491455 190.033875 C 361.247925 189.90976 361.921753 189.484192 362.358887 188.854462 C 362.78772 188.764343 363.208374 188.639435 363.616943 188.480988 C 364.501587 188.147003 364.717773 188.126984 365.032227 188.303986 C 365.34668 188.500458 365.936401 188.716949 366.644165 188.539978 L 366.703125 188.657959 L 367.961182 188.500458 L 369.651733 188.284485 C 374.644531 187.655548 378.969116 187.085419 382.861206 189.18869 L 384.256958 189.935608 L 385.08252 188.697296 L 385.613403 189.247772 C 386.615967 190.368103 388.365479 192.294464 390.901245 191.881653 C 391.45166 192.353607 392.080688 192.74649 392.630981 193.080627 L 393.358276 193.513123 L 393.358276 193.591583 L 393.71228 194.063568 C 394.498535 195.105408 396.169434 195.616455 397.506104 195.655701 C 400.435059 198.722137 403.403198 202.948242 403.403198 204.795837 L 403.403198 206.525635 L 404.700562 206.525635 L 404.717773 206.624146 C 405.189209 208.904297 405.857788 211.715088 407.6073 213.582458 C 407.135376 214.742218 407.54834 216.137756 407.744873 216.727478 L 407.921753 217.356415 L 407.48938 218.653748 L 408.629395 219.813507 L 408.884888 219.971008 C 408.906982 221.050171 409.204712 222.105728 409.749878 223.037354 L 410.0448 223.68605 L 409.769897 224.334671 C 408.197266 227.30278 410.300903 228.953903 411.283447 229.740189 L 411.676392 230.054657 C 410.909668 230.66394 410.929443 231.273315 410.79187 232.334824 L 410.90979 233.651718 L 411.440796 234.496902 L 411.480957 234.496902 L 411.539917 234.69339 C 411.638672 235.042297 411.777222 235.378723 411.953003 235.695908 L 411.343628 236.265854 L 410.950562 237.818649 L 411.815552 239.057068 L 412.50354 239.390945 C 412.486328 240.098557 412.758911 240.707932 412.935913 241.140396 C 412.976074 241.218887 413.014404 241.297287 413.034546 241.415283 L 412.876953 242.181885 C 412.287354 245.032104 411.57959 248.707825 413.348999 251.675842 L 413.192017 251.813339 C 412.386108 252.894424 412.582642 254.132736 412.740112 255.056595 C 412.780151 255.351669 412.858032 255.842865 412.818481 256.000122 L 412.386108 257.769226 C 412.368896 257.847626 412.956055 258.005219 413.44751 258.12323 C 413.38855 258.300201 413.310059 258.457153 413.290039 258.654175 L 412.897095 260.698364 L 413.604736 260.698364 C 413.486816 261.386414 413.467285 262.054688 413.447266 262.664063 C 413.430054 263.705811 413.388306 264.393738 413.03418 264.924438 L 412.778687 265.179932 L 412.700317 265.474915 C 412.189331 267.342285 412.877319 269.111328 413.447266 270.52655 L 413.74231 271.312805 C 413.36145 271.706116 413.161987 272.240417 413.191772 272.787048 C 413.208984 272.94455 413.270264 273.082031 413.309814 273.200012 L 412.936279 273.573486 L 413.270264 274.595673 C 413.42627 275.093872 413.772339 275.510498 414.233398 275.755432 L 413.938477 275.833923 C 413.879395 275.833923 413.879395 277.170471 413.879395 277.170471 L 413.879395 277.661926 L 412.778687 277.956909 L 413.329102 279.077332 C 413.054199 279.608307 412.759155 280.374756 413.054199 281.21991 L 412.307251 282.536835 C 412.324341 282.496796 412.425171 283.323181 413.093506 283.657227 C 412.405518 286.015991 414.115601 287.745789 415.137817 288.787598 C 415.47583 289.094055 415.779053 289.436829 416.041992 289.809692 L 415.177124 289.809692 L 415.825806 292.01123 L 415.843018 292.07019 C 415.685425 292.207703 415.547974 292.384705 415.410522 292.542175 L 413.995117 293.26947 L 414.447144 295.19574 L 414.30957 295.647705 C 413.975708 296.650208 414.25061 297.338074 414.525635 297.731293 C 414.584595 297.829773 414.663086 297.868774 414.741577 297.927765 C 414.054688 298.558563 413.62146 299.418152 413.522827 300.34552 L 413.365356 301.97699 L 414.702026 302.173462 C 414.59375 302.513092 414.488892 302.85379 414.387573 303.195618 C 414.22998 303.804932 414.092529 304.355286 413.797852 304.768005 L 413.815063 304.768005 L 413.677612 304.984589 L 415.99707 306.281799 C 415.726929 306.82312 415.509644 307.389221 415.348389 307.97229 L 415.092896 308.660309 L 414.935425 308.660309 L 412.969604 308.677429 L 413.087646 310.918274 C 413.205688 311.272278 413.245239 311.665222 413.304199 312.117371 C 413.346191 312.579041 413.411743 313.038239 413.50061 313.493256 L 413.50061 315.753754 C 413.501587 316.168396 413.534546 316.582397 413.599243 316.992065 L 413.34375 317.129578 L 413.520752 318.367889 C 413.579712 318.995544 413.579712 319.627258 413.520752 320.254822 C 413.479858 320.640076 413.460205 321.027222 413.46167 321.414551 L 411.869507 322.240173 L 413.795898 324.343353 C 413.477539 325.006897 413.303345 325.730438 413.284912 326.466187 L 411.908936 326.466187 L 414.248169 329.316406 C 414.44458 329.552368 414.621582 330.200928 414.739624 330.653046 L 414.798584 330.830048 C 413.835327 331.753906 413.678101 333.129791 413.599487 333.857147 C 413.559448 334.19104 413.520996 334.682678 413.442017 334.820251 L 413.459106 334.780121 L 414.068481 335.546753 C 413.691895 335.831604 413.38855 336.202179 413.18396 336.627808 C 412.957397 337.139923 412.889038 337.708038 412.987549 338.259277 L 410.726929 338.259277 L 412.59436 340.126648 L 410.844849 340.696533 L 412.299561 341.915253 L 412.299561 346.554077 C 412.299561 347.399353 412.712524 348.08728 413.380615 348.441101 L 413.518066 348.500122 C 414.422363 349.089722 415.444458 349.070068 416.270142 348.893066 L 416.270142 350.799683 L 418.491333 350.151062 C 419.831909 349.697327 421.265137 349.589233 422.658569 349.836578 L 424.506348 350.229462 L 424.74231 348.362183 C 425.460083 341.67804 425.644165 334.947418 425.292847 328.23407 C 424.953613 322.164246 425.11145 316.076721 425.764771 310.032532 C 426.275757 308.892456 425.747681 307.831055 425.410889 307.28064 Z"/>
    </g>
</svg>
