<?xml version="1.0" encoding="UTF-8"?>
<!-- Generated by Pixelmator Pro 3.6.18 -->
<svg width="626" height="534" viewBox="0 0 626 534" xmlns="http://www.w3.org/2000/svg">
    <path id="Percorso" fill="#0a66c2" stroke="none" d="M 595.435608 499.844116 C 598.152039 499.871277 600.757996 498.770691 602.632629 496.804688 C 604.507141 494.838654 605.482544 492.183289 605.326172 489.471252 C 605.326172 482.114624 600.887695 478.599792 591.781799 478.599792 L 577.068542 478.599792 L 577.068542 517.115845 L 582.602356 517.115845 L 582.602356 500.326385 L 589.403137 500.326385 L 589.558533 500.530762 L 600.111145 517.115845 L 606.029175 517.115845 L 594.675476 499.950378 Z M 589.035339 495.985962 L 582.618713 495.985962 L 582.618713 482.964722 L 590.751892 482.964722 C 594.953369 482.964722 599.743347 483.651337 599.743347 489.152466 C 599.743347 495.479187 594.896179 495.985962 589.002686 495.985962 M 451.082031 451.576416 L 372.611267 451.576416 L 372.611267 328.687836 C 372.611267 299.383911 372.088135 261.660706 331.798279 261.660706 C 290.92804 261.660706 284.674927 293.588531 284.674927 326.554443 L 284.674927 451.568237 L 206.204102 451.568237 L 206.204102 198.859558 L 281.536072 198.859558 L 281.536072 233.394867 L 282.590515 233.394867 C 297.951172 207.131287 326.512329 191.445129 356.917114 192.57373 C 436.4505 192.57373 451.114746 244.887573 451.114746 312.944641 Z M 117.662872 164.31604 C 92.513153 164.320557 72.121643 143.93634 72.117126 118.786621 C 72.11261 93.636902 92.496826 73.245422 117.646545 73.240906 C 142.796265 73.236389 163.187775 93.620605 163.192291 118.770264 C 163.196808 143.920044 142.812592 164.311554 117.662872 164.31604 M 156.898285 451.576416 L 78.345734 451.576416 L 78.345734 198.859558 L 156.898285 198.859558 Z M 490.203003 0.369324 L 38.914154 0.369324 C 17.585327 0.128601 0.094391 17.21344 -0.165924 38.542053 L -0.165924 491.702759 C 0.08548 513.041687 17.575012 530.143433 38.914154 529.916382 L 490.203003 529.916382 C 511.584412 530.18457 529.142456 513.083801 529.438416 491.702759 L 529.438416 38.509399 C 529.133545 17.138611 511.574036 0.054749 490.203003 0.336609"/>
    <path id="path1" fill="#0a66c2" stroke="none" d="M 589.705627 461.442474 C 569.829712 461.633667 553.84491 477.85083 553.940491 497.727417 C 554.036133 517.604004 570.176208 533.666626 590.052979 533.666626 C 609.92981 533.666626 626.069946 517.604004 626.165527 497.727417 C 626.261108 477.85083 610.276306 461.633667 590.400391 461.442474 L 589.705627 461.442474 M 589.705627 529.532227 C 572.21936 529.823242 557.807983 515.883789 557.516846 498.397491 C 557.225708 480.911224 571.1651 466.499756 588.651367 466.208527 C 606.137634 465.917297 620.549194 479.856567 620.840515 497.342834 L 620.840515 497.874176 C 621.205627 514.980347 607.637268 529.145142 590.531189 529.51593 L 589.713806 529.51593"/>
</svg>
