<?xml version="1.0" encoding="UTF-8"?>
<!-- Generated by Pixelmator Pro 3.6.18 -->
<svg width="256" height="174" viewBox="0 0 256 174" xmlns="http://www.w3.org/2000/svg">
    <clipPath id="clipPath1">
        <path d="M -98 -99 L 356 -99 L 356 274.001007 L -98 274.001007 Z"/>
    </clipPath>
    <g id="Gruppo" clip-path="url(#clipPath1)">
        <path id="Percorso" fill="#1b1b1b" fill-rule="evenodd" stroke="none" d="M 0.380898 12.661987 L 79.623993 12.661987 L 79.623993 -0.063507 L 0.380898 -0.063507 L 0.380898 12.661987 Z M 223.501007 125.501999 C 211.897003 125.501999 203.864014 114.843994 202.473999 100.718994 C 205.997986 88.660995 213.812012 82.654999 223.052002 82.654999 C 234.929993 82.654999 241.632996 91.416 241.632996 103.869995 C 241.632996 117.235001 233.997009 125.501999 223.501007 125.501999 Z M 226.40799 70.983002 C 214.69101 70.983002 206.309998 76.399002 202.07901 84.417999 C 202.07901 65.475006 208.692993 48.973007 224.399994 48.973007 C 234.386993 48.973007 238.351013 54.712997 240.468994 64.119995 L 255.014008 61.214996 C 251.59201 44.972 241.255005 37.076004 224.505005 37.076004 C 203.457001 37.076004 187.708008 53.214996 187.708008 89.386993 C 187.708008 121.496994 200.838013 137.367004 223.466003 137.367004 C 242.161987 137.367004 256.164001 124.619003 256.164001 103.610001 C 256.164001 87.195999 247.403015 70.983002 226.40799 70.983002 Z M 64.764999 38.113007 L 64.764999 105.302994 L 64.759003 105.302994 C 64.759003 111.251007 64.897003 114.847 65.173996 118.306 L 64.897003 118.306 C 63.442993 114.345001 61.725998 110.875 59.164993 106.358994 L 19.377998 38.113007 L 1.191597 38.113007 L 1.191597 136.330002 L 15.362 136.330002 L 15.362 69.139008 L 15.369003 69.139008 C 15.369003 63.190994 15.230003 59.595001 14.954002 56.136002 L 15.230003 56.136002 C 16.683998 60.095993 18.401001 63.565002 20.961998 68.080002 L 60.751999 136.330002 L 78.748993 136.330002 L 78.748993 38.113007 L 64.764999 38.113007 Z M 79.623993 174.441986 L 0.380898 174.441986 L 0.380898 161.781006 L 79.623993 161.781006 L 79.623993 174.441986 Z M 146.128006 105.302994 C 141.417999 110.007004 130.804001 118.498993 123.397995 123.604996 L 167.828003 123.604996 L 167.828003 136.330002 L 102.445999 136.330002 L 102.445999 124.710007 C 110.022003 119.307999 125.757004 107.570999 135.604996 97.735001 C 145.031006 88.320999 151.201996 79.718002 151.201996 67.093994 C 151.201996 54.673004 144.369995 49.507004 135.136993 49.507004 C 125.669998 49.507004 118.108002 54.970001 118.108002 66.380005 C 118.108002 68.871994 118.384003 71.636002 119.076996 74.819 L 104.225006 73.380997 C 103.533005 70.613998 103.255005 68.125 103.255005 65.634995 C 103.255005 50.397995 113.951996 37.076996 135.626007 37.076996 C 153.501007 37.076996 166.721008 46.350006 166.721008 66.608994 C 166.721008 85.035004 153.251007 98.289993 147.190002 104.253006 C 146.804001 104.632996 146.449005 104.983002 146.128006 105.302994 Z"/>
    </g>
</svg>
