<svg version="1.1" id="Layer_1" xmlns="http://www.w3.org/2000/svg" xmlns:xlink="http://www.w3.org/1999/xlink" x="0px" y="0px" viewBox="0 0 56.6 58.8" style="enable-background:new 0 0 56.6 58.8;" xml:space="preserve">
 <g>
  <path d="M56.6,29.4C56-0.8,16-11.9,0.6,16.2c0.7,0.6,1.7,1.3,2.2,1.7c-1.1,2.4-2,5-2.4,7.4C0.2,27,0,28.7,0,30.5
		c0,15.6,12.7,28.3,28.3,28.3s28.3-12.7,28.3-28.3C56.6,30.1,56.6,29.8,56.6,29.4L56.6,29.4z M7.1,34.4c-0.4,3-0.2,4.1-0.2,4.5
		l-0.7,0.2C6,38.5,5.2,36.8,5,34.4c-0.7-9.1,5.4-17.3,14.9-18.8c8.8-1.3,16.9,4.1,19,11.7l-0.7,0.2c-0.2-0.2-0.6-0.7-1.9-2.2
		C25.9,14.7,9.3,19.5,7.1,34.4L7.1,34.4z M33.9,39.5c-1.5,2-3.7,3.4-6.3,3.4c-4.3,0-7.8-3.5-7.8-7.8c0-4.1,3.2-7.4,7.3-7.6l0,0
		c2.4-0.2,4.8,1.3,6,3.4c1.1,2.4,0.7,5.2-1.1,7.3C32.6,38.5,33.3,39.1,33.9,39.5L33.9,39.5z M50.1,39.8C46,49.1,37.6,54,28.7,53.8
		C11.4,52.9,6.3,33.1,17.9,25.9l0.6,0.6c-0.2,0.2-0.9,0.7-1.9,3c-1.3,2.6-1.7,5-1.5,6.7c0.9,14,20.3,16.8,27,3
		c8.4-19-14.2-38.2-34.3-23.5l-0.4-0.6c5.2-8.2,15.5-11.9,25.3-9.5C47.9,9.5,56,25.1,50.1,39.8z">
  </path>
 </g>
</svg>