<svg xmlns="http://www.w3.org/2000/svg" xmlns:xlink="http://www.w3.org/1999/xlink" version="1.1" width="256" height="256" viewBox="0 0 256 256" xml:space="preserve">
<g style="stroke: none; stroke-width: 0; stroke-dasharray: none; stroke-linecap: butt; stroke-linejoin: miter; stroke-miterlimit: 10; fill: none; fill-rule: nonzero; opacity: 1;" transform="translate(1.4065934065934016 1.4065934065934016) scale(2.81 2.81)">
	<path d="M 53.29 45.708 c 0 -2.176 -0.931 -4.098 -4.081 -4.098 c -1.616 0 -2.9 0.461 -3.596 0.864 l 0.51 1.745 c 0.641 -0.402 1.663 -0.733 2.628 -0.733 c 1.595 -0.002 1.856 0.9 1.856 1.48 v 0.14 c -3.481 -0.006 -5.681 1.197 -5.681 3.646 c 0 1.497 1.117 2.9 3.07 2.9 c 1.191 0 2.198 -0.481 2.799 -1.24 h 0.059 c 0 0 0.396 1.659 2.589 1.025 c -0.111 -0.695 -0.153 -1.427 -0.153 -2.316 V 45.708 z M 50.694 48.006 c 0 0.176 -0.015 0.358 -0.066 0.515 c -0.2 0.67 -0.892 1.231 -1.752 1.231 c -0.726 0 -1.296 -0.411 -1.296 -1.272 c 0 -1.318 1.455 -1.68 3.115 -1.671" style="stroke: none; stroke-width: 1; stroke-dasharray: none; stroke-linecap: butt; stroke-linejoin: miter; stroke-miterlimit: 10; fill: rgb(0,113,206); fill-rule: nonzero; opacity: 1;" transform=" matrix(1 0 0 1 0 0) " stroke-linecap="round"/>
	<path d="M 0 38.65 c 0 0 2.274 9.302 2.635 10.808 c 0.426 1.761 1.188 2.412 3.388 1.979 l 1.421 -5.768 c 0.359 -1.429 0.604 -2.454 0.836 -3.91 H 8.32 c 0.161 1.471 0.393 2.481 0.687 3.914 c 0 0 0.58 2.62 0.881 3.993 c 0.293 1.373 1.117 2.239 3.276 1.77 l 3.383 -12.787 h -2.731 l -1.161 5.531 c -0.307 1.602 -0.587 2.865 -0.804 4.333 h -0.039 c -0.196 -1.453 -0.445 -2.663 -0.765 -4.233 L 9.843 38.65 H 6.994 L 5.71 44.138 c -0.366 1.676 -0.708 3.019 -0.923 4.441 H 4.75 c -0.222 -1.334 -0.522 -3.034 -0.841 -4.646 c 0 0 -0.762 -3.929 -1.031 -5.283" style="stroke: none; stroke-width: 1; stroke-dasharray: none; stroke-linecap: butt; stroke-linejoin: miter; stroke-miterlimit: 10; fill: rgb(0,113,206); fill-rule: nonzero; opacity: 1;" transform=" matrix(1 0 0 1 0 0) " stroke-linecap="round"/>
	<path d="M 24.156 45.708 c 0 -2.176 -0.934 -4.098 -4.083 -4.098 c -1.611 0 -2.897 0.461 -3.593 0.864 l 0.51 1.745 c 0.639 -0.402 1.66 -0.733 2.628 -0.733 c 1.595 -0.002 1.856 0.9 1.856 1.48 v 0.14 c -3.481 -0.006 -5.683 1.197 -5.683 3.646 c 0 1.497 1.122 2.9 3.065 2.9 c 1.203 0 2.2 -0.481 2.802 -1.24 h 0.061 c 0 0 0.399 1.659 2.589 1.025 c -0.113 -0.695 -0.151 -1.427 -0.151 -2.316 V 45.708 z M 21.557 48.006 c 0 0.176 -0.015 0.358 -0.064 0.515 c -0.203 0.67 -0.894 1.231 -1.757 1.231 c -0.722 0 -1.294 -0.411 -1.294 -1.272 c 0 -1.318 1.455 -1.68 3.115 -1.671" style="stroke: none; stroke-width: 1; stroke-dasharray: none; stroke-linecap: butt; stroke-linejoin: miter; stroke-miterlimit: 10; fill: rgb(0,113,206); fill-rule: nonzero; opacity: 1;" transform=" matrix(1 0 0 1 0 0) " stroke-linecap="round"/>
	<polygon points="25.57,38.65 25.57,51.43 28.17,51.43 28.17,48.72 28.17,38.65 " style="stroke: none; stroke-width: 1; stroke-dasharray: none; stroke-linecap: butt; stroke-linejoin: miter; stroke-miterlimit: 10; fill: rgb(0,113,206); fill-rule: nonzero; opacity: 1;" transform="  matrix(1 0 0 1 0 0) "/>
	<path d="M 61.267 38.65 v 9.431 c 0 1.302 0.244 2.209 0.77 2.766 c 0.462 0.488 1.217 0.805 2.117 0.805 c 0.773 0 1.528 -0.149 1.885 -0.278 l -0.032 -2.03 c -0.267 0.062 -0.572 0.115 -0.991 0.115 c -0.887 0 -1.18 -0.562 -1.18 -1.731 v -3.61 H 66.1 v -2.443 h -2.263 V 38.65" style="stroke: none; stroke-width: 1; stroke-dasharray: none; stroke-linecap: butt; stroke-linejoin: miter; stroke-miterlimit: 10; fill: rgb(0,113,206); fill-rule: nonzero; opacity: 1;" transform=" matrix(1 0 0 1 0 0) " stroke-linecap="round"/>
	<path d="M 54.55 41.832 v 9.605 h 2.687 v -4.919 c 0 -0.265 0.017 -0.493 0.059 -0.705 c 0.2 -1.037 0.988 -1.694 2.122 -1.694 c 0.316 0 0.532 0.035 0.77 0.072 v -2.518 c -0.2 -0.036 -0.337 -0.055 -0.583 -0.055 c -1.006 0 -2.145 0.638 -2.626 2.029 h -0.066 v -1.815" style="stroke: none; stroke-width: 1; stroke-dasharray: none; stroke-linecap: butt; stroke-linejoin: miter; stroke-miterlimit: 10; fill: rgb(0,113,206); fill-rule: nonzero; opacity: 1;" transform=" matrix(1 0 0 1 0 0) " stroke-linecap="round"/>
	<path d="M 29.681 41.832 v 9.605 h 2.618 V 45.8 c 0 -0.265 0.029 -0.535 0.123 -0.779 c 0.213 -0.571 0.741 -1.232 1.589 -1.232 c 1.054 0 1.552 0.89 1.552 2.173 v 5.475 h 2.611 v -5.705 c 0 -0.249 0.035 -0.554 0.108 -0.775 c 0.209 -0.648 0.782 -1.169 1.572 -1.169 c 1.065 0 1.581 0.87 1.581 2.384 v 5.265 h 2.609 v -5.663 c 0 -2.975 -1.513 -4.155 -3.232 -4.155 c -0.756 0 -1.357 0.186 -1.897 0.519 c -0.457 0.28 -0.858 0.676 -1.217 1.193 h -0.039 c -0.413 -1.034 -1.384 -1.712 -2.652 -1.712 c -1.626 0 -2.365 0.821 -2.799 1.515 h -0.039 v -1.301" style="stroke: none; stroke-width: 1; stroke-dasharray: none; stroke-linecap: butt; stroke-linejoin: miter; stroke-miterlimit: 10; fill: rgb(0,113,206); fill-rule: nonzero; opacity: 1;" transform=" matrix(1 0 0 1 0 0) " stroke-linecap="round"/>
	<path d="M 80.162 41.401 c 0.513 0 0.946 -0.268 1.002 -0.613 l 0.509 -5.766 c 0 -0.571 -0.672 -1.038 -1.511 -1.038 c -0.843 0 -1.511 0.467 -1.511 1.038 l 0.513 5.766 C 79.218 41.133 79.648 41.401 80.162 41.401" style="stroke: none; stroke-width: 1; stroke-dasharray: none; stroke-linecap: butt; stroke-linejoin: miter; stroke-miterlimit: 10; fill: rgb(255,194,32); fill-rule: nonzero; opacity: 1;" transform=" matrix(1 0 0 1 0 0) " stroke-linecap="round"/>
	<path d="M 77.039 43.205 c 0.254 -0.45 0.24 -0.95 -0.035 -1.173 l -4.752 -3.323 c -0.494 -0.288 -1.234 0.055 -1.658 0.783 c -0.422 0.726 -0.337 1.542 0.147 1.824 l 5.261 2.439 c 0.337 0.126 0.777 -0.108 1.036 -0.554" style="stroke: none; stroke-width: 1; stroke-dasharray: none; stroke-linecap: butt; stroke-linejoin: miter; stroke-miterlimit: 10; fill: rgb(255,194,32); fill-rule: nonzero; opacity: 1;" transform=" matrix(1 0 0 1 0 0) " stroke-linecap="round"/>
	<path d="M 83.284 43.201 c 0.269 0.446 0.709 0.68 1.037 0.561 l 5.261 -2.446 c 0.489 -0.288 0.562 -1.096 0.149 -1.822 c -0.422 -0.727 -1.167 -1.069 -1.66 -0.786 l -4.753 3.32 c -0.264 0.226 -0.283 0.729 -0.028 1.178" style="stroke: none; stroke-width: 1; stroke-dasharray: none; stroke-linecap: butt; stroke-linejoin: miter; stroke-miterlimit: 10; fill: rgb(255,194,32); fill-rule: nonzero; opacity: 1;" transform=" matrix(1 0 0 1 0 0) " stroke-linecap="round"/>
	<path d="M 80.162 48.603 c 0.513 0 0.946 0.268 1.002 0.613 l 0.509 5.766 c 0 0.571 -0.672 1.034 -1.511 1.034 c -0.843 0 -1.511 -0.463 -1.511 -1.034 l 0.513 -5.766 C 79.218 48.871 79.648 48.603 80.162 48.603" style="stroke: none; stroke-width: 1; stroke-dasharray: none; stroke-linecap: butt; stroke-linejoin: miter; stroke-miterlimit: 10; fill: rgb(255,194,32); fill-rule: nonzero; opacity: 1;" transform=" matrix(1 0 0 1 0 0) " stroke-linecap="round"/>
	<path d="M 83.284 46.804 c 0.269 -0.447 0.709 -0.686 1.037 -0.556 l 5.261 2.441 c 0.489 0.283 0.562 1.097 0.149 1.824 c -0.422 0.722 -1.167 1.065 -1.66 0.783 l -4.753 -3.324 c -0.264 -0.224 -0.283 -0.724 -0.028 -1.168" style="stroke: none; stroke-width: 1; stroke-dasharray: none; stroke-linecap: butt; stroke-linejoin: miter; stroke-miterlimit: 10; fill: rgb(255,194,32); fill-rule: nonzero; opacity: 1;" transform=" matrix(1 0 0 1 0 0) " stroke-linecap="round"/>
	<path d="M 77.039 46.799 c 0.254 0.449 0.24 0.948 -0.035 1.173 l -4.752 3.319 c -0.494 0.288 -1.234 -0.056 -1.658 -0.778 c -0.422 -0.726 -0.337 -1.542 0.147 -1.824 l 5.261 -2.441 C 76.339 46.119 76.78 46.356 77.039 46.799" style="stroke: none; stroke-width: 1; stroke-dasharray: none; stroke-linecap: butt; stroke-linejoin: miter; stroke-miterlimit: 10; fill: rgb(255,194,32); fill-rule: nonzero; opacity: 1;" transform=" matrix(1 0 0 1 0 0) " stroke-linecap="round"/>
</g>
</svg>