<svg width="30" height="30" viewBox="0 0 30 30" fill="none" xmlns="http://www.w3.org/2000/svg">
<g clip-path="url(#clip0_121_60)">
<path d="M25.8263 24.2205C13.6824 30 6.14571 25.1645 1.32125 22.2275C1.02272 22.0424 0.51531 22.2707 0.955555 22.7764C2.56282 24.7253 7.83018 29.4226 14.7056 29.4226C21.5858 29.4226 25.6789 25.6684 26.1909 25.0135C26.6994 24.3642 26.3402 24.006 25.8262 24.2205H25.8263ZM29.2369 22.337C28.9108 21.9123 27.2539 21.8331 26.2112 21.9612C25.1668 22.0856 23.5993 22.7239 23.7355 23.1071C23.8055 23.2507 23.9482 23.1863 24.6657 23.1218C25.3851 23.05 27.4004 22.7957 27.8203 23.3446C28.2422 23.8974 27.1775 26.5306 26.9831 26.9552C26.7952 27.3799 27.0549 27.4894 27.4078 27.2066C27.7558 26.9238 28.3859 26.1916 28.8087 25.1555C29.2286 24.1137 29.4848 22.6603 29.2369 22.337Z" fill="#FF9900"/>
<path fill-rule="evenodd" clip-rule="evenodd" d="M17.6608 12.4275C17.6608 13.9439 17.6992 15.2086 16.9327 16.5553C16.314 17.6503 15.3341 18.3236 14.2392 18.3236C12.7445 18.3236 11.8741 17.1849 11.8741 15.5042C11.8741 12.1865 14.8467 11.5844 17.6608 11.5844V12.4275ZM21.5861 21.9151C21.3288 22.1449 20.9565 22.1614 20.6664 22.0081C19.3744 20.9351 19.1444 20.4369 18.4327 19.4131C16.2976 21.5921 14.7866 22.2435 12.0165 22.2435C8.74264 22.2435 6.19141 20.2233 6.19141 16.1776C6.19141 13.0188 7.90508 10.8672 10.3411 9.81612C12.4544 8.88532 15.4053 8.72111 17.6608 8.46389V7.96017C17.6608 7.03491 17.7319 5.94001 17.19 5.14076C16.7137 4.42356 15.8049 4.12791 15.0055 4.12791C13.522 4.12791 12.1971 4.88885 11.8741 6.46554C11.8083 6.816 11.5511 7.16093 11.2007 7.17731L7.42317 6.77226C7.10571 6.70095 6.75536 6.44373 6.84295 5.9564C7.7134 1.3797 11.8466 0 15.5474 0C17.4417 0 19.9162 0.503714 21.4108 1.93811C23.3051 3.70636 23.1244 6.06591 23.1244 8.63352V14.6994C23.1244 16.5225 23.8799 17.3217 24.5916 18.3072C24.8434 18.6576 24.8982 19.0793 24.5806 19.3419C23.7868 20.0043 22.3743 21.2362 21.597 21.926L21.586 21.9151" fill="#0D0D0D"/>
<path d="M25.8263 24.2205C13.6824 30 6.14571 25.1645 1.32125 22.2275C1.02272 22.0424 0.51531 22.2707 0.955555 22.7764C2.56282 24.7253 7.83018 29.4226 14.7056 29.4226C21.5858 29.4226 25.6789 25.6684 26.1909 25.0135C26.6994 24.3642 26.3402 24.006 25.8262 24.2205H25.8263ZM29.2369 22.337C28.9108 21.9123 27.2539 21.8331 26.2112 21.9612C25.1668 22.0856 23.5993 22.7239 23.7355 23.1071C23.8055 23.2507 23.9482 23.1863 24.6657 23.1218C25.3851 23.05 27.4004 22.7957 27.8203 23.3446C28.2422 23.8974 27.1775 26.5306 26.9831 26.9552C26.7952 27.3799 27.0549 27.4894 27.4078 27.2066C27.7558 26.9238 28.3859 26.1916 28.8087 25.1555C29.2286 24.1137 29.4848 22.6603 29.2369 22.337Z" fill="#FF9900"/>
<path fill-rule="evenodd" clip-rule="evenodd" d="M17.6608 12.4275C17.6608 13.9439 17.6992 15.2086 16.9327 16.5553C16.314 17.6503 15.3341 18.3236 14.2392 18.3236C12.7445 18.3236 11.8741 17.1849 11.8741 15.5042C11.8741 12.1865 14.8467 11.5844 17.6608 11.5844V12.4275ZM21.5861 21.9151C21.3288 22.1449 20.9565 22.1614 20.6664 22.0081C19.3744 20.9351 19.1444 20.4369 18.4327 19.4131C16.2976 21.5921 14.7866 22.2435 12.0165 22.2435C8.74264 22.2435 6.19141 20.2233 6.19141 16.1776C6.19141 13.0188 7.90508 10.8672 10.3411 9.81612C12.4544 8.88532 15.4053 8.72111 17.6608 8.46389V7.96017C17.6608 7.03491 17.7319 5.94001 17.19 5.14076C16.7137 4.42356 15.8049 4.12791 15.0055 4.12791C13.522 4.12791 12.1971 4.88885 11.8741 6.46554C11.8083 6.816 11.5511 7.16093 11.2007 7.17731L7.42317 6.77226C7.10571 6.70095 6.75536 6.44373 6.84295 5.9564C7.7134 1.3797 11.8466 0 15.5474 0C17.4417 0 19.9162 0.503714 21.4108 1.93811C23.3051 3.70636 23.1244 6.06591 23.1244 8.63352V14.6994C23.1244 16.5225 23.8799 17.3217 24.5916 18.3072C24.8434 18.6576 24.8982 19.0793 24.5806 19.3419C23.7868 20.0043 22.3743 21.2362 21.597 21.926L21.586 21.9151" fill="white"/>
</g>
<defs>
<clipPath id="clip0_121_60">
<rect width="30" height="30" fill="white"/>
</clipPath>
</defs>
</svg>
