<svg width="64" height="64" viewBox="0 0 64 64" fill="none" xmlns="http://www.w3.org/2000/svg">
<g clip-path="url(#clip0_233_153)">
<path d="M11.9326 35.7974L35.7975 11.9325L51.7074 27.8424L27.8425 51.7073L11.9326 35.7974ZM27.8425 27.8424C28.8974 26.7875 30.3282 26.1949 31.82 26.1949C33.3118 26.1949 34.7426 26.7875 35.7975 27.8424C36.8524 28.8973 37.445 30.328 37.445 31.8199C37.445 33.3117 36.8524 34.7425 35.7975 35.7974C34.7426 36.8523 33.3118 37.4449 31.82 37.4449C30.3282 37.4449 28.8974 36.8523 27.8425 35.7974C26.7876 34.7425 26.195 33.3117 26.195 31.8199C26.195 30.328 26.7876 28.8973 27.8425 27.8424V27.8424ZM19.8876 33.1457C20.5908 33.849 20.9859 34.8028 20.9859 35.7974C20.9859 36.7919 20.5908 37.7458 19.8876 38.449L25.1909 43.7523C25.8941 43.0491 26.848 42.654 27.8425 42.654C28.8371 42.654 29.7909 43.0491 30.4942 43.7523L43.7524 30.4941C43.0492 29.7908 42.6541 28.837 42.6541 27.8424C42.6541 26.8479 43.0492 25.894 43.7524 25.1908L38.4491 19.8875C37.7459 20.5907 36.792 20.9858 35.7975 20.9858C34.8029 20.9858 33.8491 20.5907 33.1458 19.8875L19.8876 33.1457Z" fill="#60C19A"/>
</g>
<defs>
<clipPath id="clip0_233_153">
<rect width="45" height="45" fill="white" transform="translate(0 31.8198) rotate(-45)"/>
</clipPath>
</defs>
</svg>
