<svg width="30" height="30" viewBox="0 0 30 30" fill="none" xmlns="http://www.w3.org/2000/svg">
<path d="M14.9999 0.5C6.71587 0.5 0 6.99198 0 15.0001C0 23.0085 6.71587 29.5 14.9999 29.5C23.2849 29.5 30 23.0085 30 15.0001C30 6.9925 23.2849 0.500693 14.9997 0.500693L14.9999 0.5ZM21.8788 21.4133C21.6101 21.8392 21.0333 21.9743 20.5927 21.7128C17.0709 19.6333 12.6373 19.1623 7.41604 20.3155C6.91289 20.4263 6.41136 20.1216 6.29673 19.635C6.18155 19.1485 6.49555 18.6636 6.99995 18.5528C12.7138 17.2904 17.615 17.8342 21.5689 20.1701C22.0095 20.4315 22.1492 20.9873 21.8788 21.4133ZM23.7147 17.4646C23.3762 17.997 22.6561 18.165 22.1063 17.8377C18.0743 15.4414 11.9282 14.7476 7.15918 16.147C6.54069 16.3276 5.88744 15.9907 5.69973 15.3938C5.51344 14.7959 5.86219 14.1657 6.47961 13.9839C11.9271 12.386 18.6994 13.16 23.3296 15.9105C23.8795 16.2378 24.0533 16.9337 23.7147 17.4646ZM23.8724 13.3532C19.038 10.5774 11.0618 10.3222 6.44611 11.6764C5.70492 11.8937 4.9211 11.4893 4.69648 10.7728C4.47187 10.0559 4.88993 9.29871 5.63166 9.08089C10.9302 7.52598 19.7383 7.8264 25.3042 11.0205C25.9723 11.403 26.1909 12.2354 25.795 12.879C25.401 13.5234 24.5376 13.7359 23.8731 13.3532H23.8724Z" fill="#1ED760"/>
</svg>
