<svg width="90" height="90" viewBox="0 0 90 90" fill="none" xmlns="http://www.w3.org/2000/svg">
<path d="M89.5501 32.255C89.9188 36.0415 90.067 40.2723 89.972 45C89.0678 90 69.8311 90 44.986 90C26.4288 90 10.4972 89.9996 3.6211 71.2485C3.63362 70.8118 3.64889 70.376 3.66988 69.9407C3.90505 65.0627 4.71441 61.0841 6.71617 57.8628C10.5851 51.6371 20.0832 46.575 45.4184 46.575V46.5741C70.6589 46.5478 83.6028 41.6522 89.5501 32.255Z" fill="#0D0D0D"/>
<path d="M44.986 0C63.5904 0 80.0631 0.0052597 86.7855 18.8987C86.412 22.6843 85.5731 25.8704 83.9159 28.5372C80.047 34.7629 70.5489 39.825 45.2136 39.825C19.8342 39.8514 6.88594 44.8011 0.983058 54.2997C0.781328 54.6243 0.589794 54.9527 0.406934 55.2836C0.139198 52.1476 1.84617e-05 48.7283 1.81472e-09 45C-0.000220758 2.05994e-05 20.1409 0 44.986 0Z" fill="#0D0D0D"/>
</svg>
