<svg width="71" height="71" viewBox="0 0 71 71" fill="none" xmlns="http://www.w3.org/2000/svg">
<path fill-rule="evenodd" clip-rule="evenodd" d="M35.0488 13.1481C36.017 13.1481 36.8019 13.933 36.8019 14.9012V21.0521L43.976 16.7653C44.8071 16.2687 45.8834 16.5398 46.3801 17.371C46.8767 18.2021 46.6055 19.2785 45.7744 19.7751L36.8019 25.1365V34.0172L48.1821 27.164C49.0115 26.6646 50.0888 26.932 50.5883 27.7614C51.0877 28.5909 50.8203 29.6682 49.9909 30.1676L38.8406 36.8823L49.984 43.5234C50.8157 44.0191 51.0881 45.0951 50.5924 45.9268C50.0967 46.7585 49.0207 47.0309 48.189 46.5353L36.8019 39.7489V56.0988C36.8019 57.067 36.017 57.8519 35.0488 57.8519C34.0806 57.8519 33.2958 57.067 33.2958 56.0988V40.2214L22.818 46.5311C21.9886 47.0306 20.9113 46.7631 20.4118 45.9337C19.9124 45.1043 20.1798 44.027 21.0092 43.5275L32.0182 36.8979L21.2167 30.4605C20.385 29.9649 20.1126 28.8888 20.6082 28.0571C21.1039 27.2254 22.18 26.953 23.0117 27.4487L33.2958 33.5777V14.9012C33.2958 13.933 34.0806 13.1481 35.0488 13.1481Z" fill="#0D0D0D"/>
<path fill-rule="evenodd" clip-rule="evenodd" d="M35.5 67.4938C53.1697 67.4938 67.4938 53.1697 67.4938 35.5C67.4938 17.8303 53.1697 3.50617 35.5 3.50617C17.8303 3.50617 3.50617 17.8303 3.50617 35.5C3.50617 53.1697 17.8303 67.4938 35.5 67.4938ZM35.5 71C55.1061 71 71 55.1061 71 35.5C71 15.8939 55.1061 0 35.5 0C15.8939 0 0 15.8939 0 35.5C0 55.1061 15.8939 71 35.5 71Z" fill="#0D0D0D"/>
</svg>
