<svg width="166" height="130" viewBox="0 0 166 130" fill="none" xmlns="http://www.w3.org/2000/svg">
<path d="M3.75 130H0V93.9H3.7V95.7C6.23333 94.1667 8.73333 93.4 11.2 93.4C14.3667 93.4 16.6667 94.4167 18.1 96.45C19.5333 98.45 20.25 101.767 20.25 106.4C20.25 108.7 20.05 110.683 19.65 112.35C19.25 113.983 18.6 115.333 17.7 116.4C16.8333 117.433 15.7167 118.2 14.35 118.7C12.9833 119.167 11.3167 119.4 9.35 119.4C8.31667 119.4 7.33333 119.35 6.4 119.25C5.5 119.15 4.61667 119.017 3.75 118.85V130ZM10.65 96.75C9.65 96.75 8.56667 96.9167 7.4 97.25C6.26667 97.5833 5.36667 97.9167 4.7 98.25L3.75 98.75V115.6C4.91667 115.767 5.95 115.9 6.85 116C7.75 116.1 8.51667 116.15 9.15 116.15C11.85 116.15 13.7333 115.383 14.8 113.85C15.9 112.317 16.45 109.817 16.45 106.35C16.45 102.883 15.95 100.417 14.95 98.95C13.9833 97.4833 12.55 96.75 10.65 96.75Z" fill="#0D0D0D"/>
<path d="M25.2672 106.35C25.2672 104.05 25.4505 102.083 25.8172 100.45C26.2172 98.8167 26.8505 97.4833 27.7172 96.45C28.5839 95.3833 29.7005 94.6167 31.0672 94.15C32.4339 93.65 34.0839 93.4 36.0172 93.4C37.9505 93.4 39.5839 93.65 40.9172 94.15C42.2839 94.6167 43.3839 95.3833 44.2172 96.45C45.0839 97.4833 45.7005 98.8167 46.0672 100.45C46.4672 102.083 46.6672 104.05 46.6672 106.35C46.6672 108.65 46.4839 110.617 46.1172 112.25C45.7839 113.883 45.2005 115.233 44.3672 116.3C43.5339 117.367 42.4339 118.15 41.0672 118.65C39.7005 119.15 38.0005 119.4 35.9672 119.4C33.9339 119.4 32.2339 119.15 30.8672 118.65C29.5005 118.15 28.4005 117.367 27.5672 116.3C26.7339 115.233 26.1339 113.883 25.7672 112.25C25.4339 110.617 25.2672 108.65 25.2672 106.35ZM29.1172 106.25C29.1172 108.083 29.2005 109.633 29.3672 110.9C29.5672 112.133 29.9172 113.15 30.4172 113.95C30.9505 114.717 31.6672 115.283 32.5672 115.65C33.4672 115.983 34.6172 116.15 36.0172 116.15C37.4172 116.15 38.5505 115.983 39.4172 115.65C40.3172 115.317 41.0172 114.767 41.5172 114C42.0172 113.2 42.3505 112.183 42.5172 110.95C42.7172 109.683 42.8172 108.133 42.8172 106.3C42.8172 104.467 42.7005 102.933 42.4672 101.7C42.2672 100.467 41.9005 99.4833 41.3672 98.75C40.8339 97.9833 40.1339 97.45 39.2672 97.15C38.4005 96.8167 37.3172 96.65 36.0172 96.65C34.7172 96.65 33.6172 96.8167 32.7172 97.15C31.8505 97.45 31.1505 97.9833 30.6172 98.75C30.0839 99.4833 29.7005 100.467 29.4672 101.7C29.2339 102.9 29.1172 104.417 29.1172 106.25Z" fill="#0D0D0D"/>
<path d="M57.4832 118.9L50.4332 93.9H54.4332L60.2832 115.65H62.1332L68.1832 93.9H72.0332L64.9832 118.9H57.4832Z" fill="#0D0D0D"/>
<path d="M93.8555 115.8L95.3055 115.65L95.4055 118.6C93.5055 118.867 91.7388 119.067 90.1055 119.2C88.5055 119.333 87.0221 119.4 85.6555 119.4C82.0555 119.4 79.5055 118.367 78.0055 116.3C76.5055 114.2 75.7555 110.95 75.7555 106.55C75.7555 97.7833 79.2388 93.4 86.2055 93.4C89.6055 93.4 92.1221 94.35 93.7555 96.25C95.4221 98.1167 96.2555 101.067 96.2555 105.1L96.0555 107.95H79.5555C79.5555 110.75 80.0555 112.817 81.0555 114.15C82.0555 115.45 83.8055 116.1 86.3055 116.1C88.8055 116.1 91.3221 116 93.8555 115.8ZM79.5055 104.95H92.5055C92.5055 101.883 92.0055 99.7167 91.0055 98.45C90.0388 97.1833 88.4555 96.55 86.2555 96.55C84.0221 96.55 82.3388 97.2167 81.2055 98.55C80.1055 99.8833 79.5388 102.017 79.5055 104.95Z" fill="#0D0D0D"/>
<path d="M105.85 118.9H102.1V93.9H105.8V97.3C108.666 95.3333 111.716 94.0167 114.95 93.35V97.15C114.25 97.2833 113.516 97.4667 112.75 97.7C112.016 97.9333 111.283 98.1833 110.55 98.45C109.85 98.6833 109.2 98.9333 108.6 99.2C108 99.4667 107.5 99.7 107.1 99.9L105.85 100.55V118.9Z" fill="#0D0D0D"/>
<path d="M118.285 106.35C118.285 104.05 118.468 102.083 118.835 100.45C119.235 98.8167 119.868 97.4833 120.735 96.45C121.601 95.3833 122.718 94.6167 124.085 94.15C125.451 93.65 127.101 93.4 129.035 93.4C130.968 93.4 132.601 93.65 133.935 94.15C135.301 94.6167 136.401 95.3833 137.235 96.45C138.101 97.4833 138.718 98.8167 139.085 100.45C139.485 102.083 139.685 104.05 139.685 106.35C139.685 108.65 139.501 110.617 139.135 112.25C138.801 113.883 138.218 115.233 137.385 116.3C136.551 117.367 135.451 118.15 134.085 118.65C132.718 119.15 131.018 119.4 128.985 119.4C126.951 119.4 125.251 119.15 123.885 118.65C122.518 118.15 121.418 117.367 120.585 116.3C119.751 115.233 119.151 113.883 118.785 112.25C118.451 110.617 118.285 108.65 118.285 106.35ZM122.135 106.25C122.135 108.083 122.218 109.633 122.385 110.9C122.585 112.133 122.935 113.15 123.435 113.95C123.968 114.717 124.685 115.283 125.585 115.65C126.485 115.983 127.635 116.15 129.035 116.15C130.435 116.15 131.568 115.983 132.435 115.65C133.335 115.317 134.035 114.767 134.535 114C135.035 113.2 135.368 112.183 135.535 110.95C135.735 109.683 135.835 108.133 135.835 106.3C135.835 104.467 135.718 102.933 135.485 101.7C135.285 100.467 134.918 99.4833 134.385 98.75C133.851 97.9833 133.151 97.45 132.285 97.15C131.418 96.8167 130.335 96.65 129.035 96.65C127.735 96.65 126.635 96.8167 125.735 97.15C124.868 97.45 124.168 97.9833 123.635 98.75C123.101 99.4833 122.718 100.467 122.485 101.7C122.251 102.9 122.135 104.417 122.135 106.25Z" fill="#0D0D0D"/>
<path d="M149.551 98.25V118.9H145.801V83H149.551V95.3C152.251 94.0333 154.817 93.4 157.251 93.4C158.917 93.4 160.284 93.6167 161.351 94.05C162.451 94.45 163.317 95.1333 163.951 96.1C164.617 97.0667 165.067 98.3333 165.301 99.9C165.567 101.467 165.701 103.4 165.701 105.7V118.9H161.951V105.8C161.951 104.067 161.867 102.617 161.701 101.45C161.567 100.283 161.301 99.35 160.901 98.65C160.534 97.95 160.001 97.4667 159.301 97.2C158.601 96.9 157.701 96.75 156.601 96.75C154.534 96.75 152.501 97.1333 150.501 97.9L149.551 98.25Z" fill="#0D0D0D"/>
<path fill-rule="evenodd" clip-rule="evenodd" d="M82.0488 13.1481C83.017 13.1481 83.8019 13.933 83.8019 14.9012V21.0521L90.976 16.7653C91.8071 16.2687 92.8834 16.5398 93.3801 17.371C93.8767 18.2021 93.6055 19.2785 92.7744 19.7751L83.8019 25.1365V34.0172L95.1821 27.164C96.0115 26.6646 97.0888 26.932 97.5883 27.7614C98.0877 28.5909 97.8203 29.6682 96.9909 30.1676L85.8406 36.8823L96.984 43.5234C97.8157 44.0191 98.0881 45.0951 97.5924 45.9268C97.0967 46.7585 96.0207 47.0309 95.189 46.5353L83.8019 39.7489V56.0988C83.8019 57.067 83.017 57.8519 82.0488 57.8519C81.0806 57.8519 80.2958 57.067 80.2958 56.0988V40.2214L69.818 46.5311C68.9886 47.0306 67.9113 46.7631 67.4118 45.9337C66.9123 45.1043 67.1798 44.027 68.0092 43.5275L79.0182 36.8979L68.2167 30.4605C67.385 29.9649 67.1126 28.8888 67.6082 28.0571C68.1039 27.2254 69.18 26.953 70.0117 27.4487L80.2958 33.5777V14.9012C80.2958 13.933 81.0806 13.1481 82.0488 13.1481Z" fill="#0D0D0D"/>
<path fill-rule="evenodd" clip-rule="evenodd" d="M82.5 67.4938C100.17 67.4938 114.494 53.1697 114.494 35.5C114.494 17.8303 100.17 3.50617 82.5 3.50617C64.8303 3.50617 50.5062 17.8303 50.5062 35.5C50.5062 53.1697 64.8303 67.4938 82.5 67.4938ZM82.5 71C102.106 71 118 55.1061 118 35.5C118 15.8939 102.106 0 82.5 0C62.8939 0 47 15.8939 47 35.5C47 55.1061 62.8939 71 82.5 71Z" fill="#0D0D0D"/>
</svg>
